<svg width="25" height="45" viewBox="0 0 25 45" fill="none" xmlns="http://www.w3.org/2000/svg">
    <path d="M10.0067 23.1712L7.29995 27.7234C7.0949 28.0515 7.01288 28.4206 7.01288 28.8307V44.6199L1.96853 41.7082C0.738198 41.011 0 39.6986 0 38.2632V6.3567C0 4.92132 0.738198 3.60897 2.00954 2.91178L7.01288 0V15.7892C7.01288 16.1583 7.13591 16.5684 7.29995 16.8965L10.0067 21.4487C10.3348 21.9819 10.3348 22.6381 10.0067 23.1712Z" fill="#0F5948"/>
    <path d="M7.01294 0V8.12017L17.5528 14.1898V30.3891L14.0258 32.3987L7.01294 36.4998V44.6199L21.0797 36.4998L22.5971 35.6385C23.8274 34.9413 24.5656 33.629 24.5656 32.1936V12.4263C24.5656 10.9909 23.8274 9.67859 22.5561 8.9814L7.01294 0Z" fill="#65BC55"/>
</svg>
