<svg width="157" height="127" viewBox="0 0 157 127" fill="none" xmlns="http://www.w3.org/2000/svg">
    <path d="M160.261 104.937H137.468V83.5321H160.26C162.322 83.5321 164 81.8459 164 79.7733V56.227C164 54.1544 162.322 52.4682 160.26 52.4682H137.467V29.9927C137.467 27.9201 135.79 26.2339 133.728 26.2339H110.946V3.75879C110.946 1.68621 109.269 0 107.207 0H94.6922C93.3652 0 92.2899 1.08121 92.2899 2.41485C92.2899 3.74849 93.3652 4.82969 94.6922 4.82969H106.142V26.2343H57.8829V4.82969H85.0028C86.3298 4.82969 87.4051 3.74849 87.4051 2.41485C87.4051 1.08121 86.3298 0 85.0028 0H3.75245C1.69061 0 0.0131328 1.68621 0.0131328 3.75879V28.396C0.00480468 28.4794 0 28.5638 0 28.6491V54.8834C0 54.9687 0.00480468 55.053 0.0134531 55.1361V80.8645C0.00480468 80.9476 0 81.032 0 81.1173V89.6675C0 91.0011 1.07561 92.0823 2.40234 92.0823C3.72907 92.0823 4.80468 91.0011 4.80468 89.6675V83.5321H26.5324V104.937H4.80468V99.3603C4.80468 98.0267 3.72907 96.9455 2.40234 96.9455C1.07561 96.9455 0 98.0267 0 99.3603V107.352C0 107.437 0.00480468 107.521 0.0134531 107.604V132.242C0.0134531 134.314 1.69093 136 3.75277 136H160.261C162.323 136 164 134.314 164 132.242V108.695C164 106.623 162.323 104.937 160.261 104.937ZM159.195 57.2979V78.7024H110.946V57.2979H159.195ZM84.4022 31.0639H132.663V52.4685H84.4022V31.0639ZM106.13 57.2979V78.7024H57.8829V57.2979H106.13ZM79.5975 31.0639V52.4685H31.3371V31.0639H79.5975ZM4.81813 4.82969H53.077V26.2343H4.81813V4.82969ZM4.80468 31.0636H26.5324V52.4682H4.80468V31.0636ZM4.81813 78.7024V57.2979H53.077V78.7024H4.81813ZM53.077 131.171H4.81813V109.766H53.077V131.171ZM31.3387 104.937V83.5321H79.5975V104.937H31.3387ZM106.13 131.171H57.8829V109.766H106.13V131.171ZM84.4041 104.937V83.5321H132.663V104.937H84.4041ZM159.195 131.171H110.946V109.766H159.195V131.171Z"
          fill="white"/>
</svg>
