<svg width="34" height="34" viewBox="0 0 34 34" fill="none" xmlns="http://www.w3.org/2000/svg">
    <path fill-rule="evenodd" clip-rule="evenodd" d="M17 31.2538C24.8722 31.2538 31.2538 24.8722 31.2538 17C31.2538 9.12782 24.8722 2.74615 17 2.74615C9.12782 2.74615 2.74615 9.12782 2.74615 17C2.74615 24.8722 9.12782 31.2538 17 31.2538ZM17 34C26.3888 34 34 26.3888 34 17C34 7.61116 26.3888 0 17 0C7.61116 0 0 7.61116 0 17C0 26.3888 7.61116 34 17 34Z" fill="#85BC5D"/>
    <path fill-rule="evenodd" clip-rule="evenodd" d="M25.8825 10.2752C26.4187 10.8115 26.4187 11.6808 25.8825 12.2171L14.8978 23.2017C14.3708 23.7287 13.5197 23.7391 12.98 23.2251L7.48767 17.9943C6.93853 17.4713 6.91734 16.6022 7.44032 16.0531C7.96331 15.5039 8.83243 15.4827 9.38157 16.0057L13.9035 20.3123L23.9406 10.2752C24.4768 9.73902 25.3462 9.73902 25.8825 10.2752Z" fill="#85BC5D"/>
</svg>
