<svg width="31" height="31" viewBox="0 0 31 31" fill="none" xmlns="http://www.w3.org/2000/svg">
    <path d="M1.55023 4.65023C0.694193 3.79419 0.694194 2.40627 1.55023 1.55023C2.40627 0.694193 3.79419 0.694193 4.65023 1.55023L29.4502 26.3502C30.3062 27.2063 30.3062 28.5942 29.4502 29.4502C28.5941 30.3062 27.2062 30.3062 26.3502 29.4502L1.55023 4.65023Z" fill="#85BC5D"/>
    <path d="M26.3503 1.55026C27.2063 0.694216 28.5942 0.694218 29.4502 1.55026C30.3063 2.4063 30.3063 3.79421 29.4502 4.65025L4.65031 29.4502C3.79427 30.3063 2.40635 30.3063 1.55031 29.4502C0.694273 28.5942 0.694273 27.2063 1.55031 26.3502L26.3503 1.55026Z" fill="#85BC5D"/>
</svg>
