<svg width="44" height="44" viewBox="0 0 44 44" fill="none" xmlns="http://www.w3.org/2000/svg">
    <path d="M37.3813 6.61977C33.2731 2.51155 27.8109 0.249023 22.001 0.249023C16.1911 0.249023 10.7289 2.51155 6.62066 6.61977C2.51244 10.728 0.25 16.1901 0.25 22C0.25 27.8099 2.51244 33.2721 6.62066 37.3803C10.7289 41.4884 16.1911 43.751 22.001 43.751C27.8109 43.751 33.2731 41.4885 37.3813 37.3803C41.4896 33.2721 43.752 27.8099 43.752 22C43.752 16.1901 41.4896 10.7279 37.3813 6.61977ZM22.001 39.4817C12.3615 39.4817 4.51931 31.6395 4.51931 22C4.51931 21.9842 4.51982 21.9686 4.51991 21.9529C4.51991 21.949 4.51931 21.9451 4.51931 21.9411C4.51931 21.9344 4.52016 21.928 4.52033 21.9213C4.56273 12.3974 12.2594 4.64884 21.7634 4.5214C21.7833 4.52046 21.803 4.51842 21.8232 4.51842C21.8352 4.51842 21.847 4.51987 21.8589 4.52021C21.9063 4.51987 21.9536 4.51842 22.0011 4.51842C31.6406 4.51842 39.4828 12.3607 39.4828 22.0001C39.4828 31.6395 31.6405 39.4817 22.001 39.4817Z" fill="white"/>
    <path d="M35.2799 23.0502C34.5691 23.0502 33.9929 22.474 33.9929 21.7632C33.9929 21.0523 34.5691 20.4761 35.2799 20.4761H36.8313C36.1026 13.3326 30.3092 7.66571 23.1101 7.13366V8.48418C23.1101 9.195 22.5339 9.77123 21.8231 9.77123C21.1123 9.77123 20.536 9.195 20.536 8.48418V7.16442C13.4435 7.85943 7.79395 13.5454 7.15476 20.6539H8.5441C9.25492 20.6539 9.83115 21.2302 9.83115 21.941C9.83115 22.6518 9.25492 23.228 8.5441 23.228H7.14422C7.736 30.451 13.4988 36.2315 20.714 36.8515V35.2199C20.714 34.5091 21.2902 33.9328 22.001 33.9328C22.7118 33.9328 23.2881 34.5091 23.2881 35.2199V36.8515C30.5622 36.2264 36.3601 30.3558 36.8711 23.0502H35.2799ZM27.2111 18.6101L22.9111 22.9101C22.6698 23.1515 22.3425 23.2871 22.0011 23.2871C21.6598 23.2871 21.3323 23.1515 21.091 22.9101L13.6062 15.4253C13.1036 14.9227 13.1036 14.1078 13.6062 13.6052C14.1088 13.1025 14.9237 13.1025 15.4263 13.6052L22.0012 20.1799L25.3911 16.79C25.8937 16.2874 26.7086 16.2874 27.2112 16.79C27.7137 17.2926 27.7137 18.1076 27.2111 18.6101Z" fill="white"/>
</svg>
