<svg width="40" height="34" viewBox="0 0 40 34" fill="none" xmlns="http://www.w3.org/2000/svg">
    <path d="M30.6554 0H18.9729C18.2335 0 17.5234 0.294364 17.0002 0.817523L1.79374 16.0212C0.704171 17.1108 0.704171 18.877 1.79374 19.9679L13.4762 31.6504C14.5658 32.74 16.332 32.74 17.4215 31.6504L32.628 16.4467C33.1512 15.9222 33.4456 15.2121 33.4456 14.4713V2.79018C33.4456 1.24861 32.1969 0 30.6554 0ZM25.7726 9.76564C24.6174 9.76564 23.6799 8.82813 23.6799 7.673C23.6799 6.51786 24.6174 5.58036 25.7726 5.58036C26.9277 5.58036 27.8652 6.51786 27.8652 7.673C27.8652 8.82813 26.9277 9.76564 25.7726 9.76564Z" fill="white"/>
    <path d="M36.2357 2.79018L36.2343 15.7771C36.2343 16.4202 35.979 17.0382 35.5229 17.493L20.0708 32.9451L20.308 33.1822C21.3976 34.2718 23.1637 34.2718 24.2533 33.1822L38.207 19.2313C38.7316 18.7082 39.0259 17.9981 39.0259 17.2587V5.58036C39.0259 4.03879 37.7773 2.79018 36.2357 2.79018Z" fill="white"/>
</svg>
