<svg width="38" height="38" viewBox="0 0 38 38" fill="none" xmlns="http://www.w3.org/2000/svg">
    <path d="M26.3872 5.97413H24.8353C24.6867 5.66014 24.5137 5.35995 24.3172 5.07508L25.0927 3.73187C25.3477 3.29018 25.1964 2.72542 24.7547 2.47047L21.556 0.623714C21.3439 0.501223 21.0917 0.468126 20.8553 0.531431C20.6187 0.59488 20.4171 0.749601 20.2946 0.961702L19.5204 2.30274C19.171 2.27304 18.8292 2.27304 18.4797 2.30274L17.7055 0.961702C17.583 0.749601 17.3813 0.59488 17.1449 0.531431C16.9084 0.468126 16.6563 0.501223 16.4442 0.623714L13.2455 2.47054C12.8038 2.72549 12.6524 3.29025 12.9075 3.73194L13.683 5.07522C13.4864 5.36002 13.3134 5.66028 13.1648 5.97421H11.6129C11.1029 5.97421 10.6895 6.38764 10.6895 6.89762V10.5912C10.6895 11.1012 11.1029 11.5146 11.6129 11.5146H13.1648C13.3134 11.8285 13.4864 12.1287 13.683 12.4135L12.9075 13.7568C12.6524 14.1985 12.8038 14.7633 13.2455 15.0182L16.4442 16.865C16.6562 16.9875 16.9083 17.0206 17.1449 16.9573C17.3814 16.8939 17.5831 16.7391 17.7055 16.527L18.4797 15.1859C18.8292 15.2157 19.171 15.2157 19.5204 15.1859L20.2946 16.5269C20.4171 16.739 20.6188 16.8937 20.8553 16.9572C20.9339 16.9782 21.0143 16.9886 21.0943 16.9886C21.255 16.9886 21.4145 16.9466 21.556 16.8649L24.7547 15.0181C25.1964 14.7631 25.3478 14.1984 25.0927 13.7567L24.3172 12.4135C24.5138 12.1287 24.6868 11.8285 24.8354 11.5145H26.3873C26.8973 11.5145 27.3107 11.101 27.3107 10.5911V6.89755C27.3106 6.38757 26.8972 5.97413 26.3872 5.97413ZM19.0001 11.4543C17.5057 11.4543 16.2901 10.2387 16.2901 8.7443C16.2901 7.24992 17.5057 6.03433 19.0001 6.03433C20.4944 6.03433 21.71 7.24992 21.71 8.7443C21.71 10.2387 20.4944 11.4543 19.0001 11.4543Z" fill="white"/>
    <path d="M6.28127 12.2002V9.82822H8.52151V7.66024H5.19728C4.59863 7.66024 4.11329 8.14558 4.11329 8.74423V12.2002C3.27291 12.3978 2.50148 12.8241 1.8758 13.4499C0.98859 14.337 0.5 15.5166 0.5 16.7713C0.5 18.026 0.98859 19.2057 1.8758 20.0928C2.29906 20.5161 2.98544 20.5161 3.40877 20.0928C3.83211 19.6695 3.83211 18.9831 3.40877 18.5598C2.42263 17.5737 2.42263 15.9689 3.40877 14.9828C3.88652 14.5051 4.52167 14.242 5.19728 14.242C5.8729 14.242 6.50804 14.5051 6.98579 14.9828C7.97193 15.9689 7.97193 17.5737 6.98579 18.5598C6.56246 18.9831 6.56246 19.6695 6.98579 20.0928C7.19746 20.3045 7.47489 20.4103 7.75224 20.4103C8.0296 20.4103 8.3071 20.3045 8.51869 20.0928C9.4059 19.2057 9.89449 18.026 9.89449 16.7713C9.89449 15.5166 9.4059 14.337 8.51869 13.4498C7.89309 12.8241 7.12165 12.3978 6.28127 12.2002Z" fill="white"/>
    <path d="M36.1243 13.4498C35.4986 12.8241 34.7272 12.3978 33.8868 12.2001V8.74416C33.8868 8.14551 33.4015 7.66017 32.8028 7.66017H29.4786V9.82815H31.7189V12.2001C30.8785 12.3977 30.107 12.8241 29.4814 13.4498C28.5942 14.337 28.1056 15.5166 28.1056 16.7713C28.1056 18.026 28.5942 19.2057 29.4814 20.0928C29.9046 20.5161 30.591 20.5161 31.0143 20.0928C31.4377 19.6695 31.4377 18.9831 31.0143 18.5598C30.0282 17.5737 30.0282 15.9689 31.0143 14.9828C31.4921 14.5051 32.1272 14.242 32.8028 14.242C33.4785 14.242 34.1136 14.5051 34.5914 14.9828C35.5775 15.9689 35.5775 17.5737 34.5914 18.5598C34.168 18.9831 34.168 19.6695 34.5914 20.0928C34.803 20.3045 35.0804 20.4103 35.3578 20.4103C35.6352 20.4103 35.9127 20.3045 36.1243 20.0928C37.0115 19.2057 37.5001 18.026 37.5001 16.7713C37.5001 15.5166 37.0115 14.337 36.1243 13.4498Z" fill="white"/>
    <path d="M3.4629 37.5001C5.05935 37.5001 6.35354 36.2059 6.35354 34.6095C6.35354 33.013 5.05935 31.7189 3.4629 31.7189C1.86645 31.7189 0.572266 33.013 0.572266 34.6095C0.572266 36.2059 1.86645 37.5001 3.4629 37.5001Z" fill="white"/>
    <path d="M19.0001 37.5001C20.5965 37.5001 21.8907 36.2059 21.8907 34.6095C21.8907 33.013 20.5965 31.7189 19.0001 31.7189C17.4036 31.7189 16.1094 33.013 16.1094 34.6095C16.1094 36.2059 17.4036 37.5001 19.0001 37.5001Z" fill="white"/>
    <path d="M23.1478 31.7189C23.721 32.5389 24.0587 33.5353 24.0587 34.6095C24.0587 35.6837 23.721 36.68 23.1478 37.5001H30.3895C29.8162 36.68 29.4786 35.6837 29.4786 34.6095C29.4786 33.5353 29.8162 32.5389 30.3895 31.7189H23.1478Z" fill="white"/>
    <path d="M7.61067 31.7189C8.18389 32.5389 8.52151 33.5353 8.52151 34.6095C8.52151 35.6837 8.18389 36.68 7.61067 37.5001H14.8523C14.2791 36.68 13.9415 35.6837 13.9415 34.6095C13.9415 33.5353 14.2791 32.5389 14.8523 31.7189H7.61067Z" fill="white"/>
    <path d="M34.5372 37.5001C36.1337 37.5001 37.4279 36.2059 37.4279 34.6095C37.4279 33.013 36.1337 31.7189 34.5372 31.7189C32.9408 31.7189 31.6466 33.013 31.6466 34.6095C31.6466 36.2059 32.9408 37.5001 34.5372 37.5001Z" fill="white"/>
    <path d="M21.71 23.0469H16.2901C15.6914 23.0469 15.2061 23.5323 15.2061 24.1309V29.5509H22.794V24.1309C22.794 23.5323 22.3087 23.0469 21.71 23.0469Z" fill="white"/>
    <path d="M10.8702 23.0469H5.45021C4.85156 23.0469 4.36622 23.5323 4.36622 24.1309V29.5509H11.9541V24.1309C11.9541 23.5323 11.4688 23.0469 10.8702 23.0469Z" fill="white"/>
    <path d="M27.13 23.0469C26.5313 23.0469 26.046 23.5323 26.046 24.1309V29.5509H33.6339V24.1309C33.6339 23.5323 33.1486 23.0469 32.5499 23.0469H27.13Z" fill="white"/>
</svg>
