<svg width="48" height="44" viewBox="0 0 48 44" fill="none" xmlns="http://www.w3.org/2000/svg">
    <path d="M42.0906 27.1531C45.1735 27.1531 47.6818 24.6449 47.6818 21.562V18.8914H44.1383C43.05 18.8914 41.9975 19.2093 41.0958 19.7971C40.9952 19.2424 40.869 18.6945 40.7159 18.1554L41.7849 17.5403C43.0782 16.7936 44.0034 15.5879 44.3899 14.1452C44.7765 12.7027 44.5781 11.1959 43.8314 9.90249L42.4961 7.58972L39.4275 9.36144C38.4849 9.90563 37.7328 10.7072 37.2467 11.667C36.8614 11.2143 36.4508 10.7801 36.017 10.3654L36.5322 9.47318C37.2788 8.1798 37.4773 6.67302 37.0907 5.23043C36.7041 3.78784 35.779 2.58215 34.4856 1.83538L32.1729 0.500092L30.4011 3.5687C29.6545 4.86208 29.456 6.36887 29.8426 7.81145C30.2292 9.25404 31.1543 10.4597 32.4477 11.2065L33.4475 11.7837C36.7246 14.5619 38.6025 18.6126 38.6025 22.917C38.6025 30.9686 32.052 37.519 24.0004 37.519C15.9488 37.519 9.39838 30.9686 9.39838 22.917C9.39838 18.6127 11.2764 14.5619 14.5534 11.7837L15.5532 11.2065C16.8466 10.4598 17.7717 9.25404 18.1582 7.81145C18.5447 6.36887 18.3463 4.86208 17.5996 3.5687L15.828 0.5L13.5152 1.83538C12.2219 2.58206 11.2967 3.78775 10.9102 5.23043C10.5236 6.67302 10.722 8.1798 11.4687 9.47318L11.9838 10.3654C11.5498 10.7802 11.1392 11.2146 10.7538 11.6674C10.2677 10.7074 9.51558 9.90563 8.57279 9.36144L5.50409 7.58972L4.16871 9.90249C3.42203 11.1959 3.22361 12.7027 3.61018 14.1452C3.99675 15.5878 4.92187 16.7935 6.21692 17.5412L7.28478 18.1557C7.13168 18.6948 7.00551 19.2428 6.90487 19.7975C6.00305 19.2094 4.95027 18.8914 3.86179 18.8914H0.318359V21.562C0.318359 24.645 2.82658 27.1531 5.91147 27.1531L7.14593 27.1514C7.28385 27.7003 7.44814 28.2388 7.63703 28.7658C6.56075 28.7059 5.48947 28.9559 4.54696 29.5L1.47816 31.2717L2.81363 33.5845C3.56032 34.8779 4.76601 35.803 6.20869 36.1896C6.69026 36.3186 7.17877 36.3825 7.66441 36.3825C8.63347 36.3825 9.59032 36.1281 10.453 35.63L11.5302 35.006C11.922 35.4101 12.3331 35.7951 12.7622 36.1597C11.7991 36.6456 10.9949 37.3992 10.4492 38.3442L8.6776 41.4129L10.9904 42.7482C11.8519 43.2455 12.808 43.4997 13.7768 43.4997C14.2625 43.4997 14.7514 43.4358 15.2331 43.3067C16.6757 42.9201 17.8814 41.995 18.6291 40.6999L19.2435 39.6325C20.7558 40.0634 22.3516 40.2943 24.0003 40.2943C25.6489 40.2943 27.2445 40.0635 28.7566 39.6326L29.3719 40.7017C30.1185 41.9951 31.3242 42.9202 32.7668 43.3068C33.2486 43.4359 33.7374 43.4997 34.2231 43.4997C35.1919 43.4997 36.1481 43.2456 37.0096 42.7482L39.3223 41.413L37.5507 38.3443C37.0051 37.3994 36.2011 36.646 35.2381 36.16C35.6673 35.7953 36.0784 35.4103 36.4703 35.0063L37.5487 35.6311C38.4103 36.1285 39.3663 36.3826 40.3352 36.3826C40.8208 36.3826 41.3098 36.3188 41.7914 36.1898C43.234 35.8032 44.4397 34.8781 45.1864 33.5847L46.5219 31.2719L43.4531 29.5002C42.5106 28.9561 41.4397 28.7062 40.3636 28.7659C40.5525 28.239 40.7167 27.7005 40.8547 27.1516L42.0906 27.1531Z" fill="white"/>
    <path d="M18.5556 25.4712L17.2822 32.948L23.9995 29.4262L30.7168 32.948L29.4432 25.4712L34.8683 20.1709L27.3639 19.0717L23.9995 12.2741L20.635 19.0716L13.1305 20.1708L18.5556 25.4712Z" fill="white"/>
</svg>
