<svg width="44" height="44" viewBox="0 0 44 44" fill="none" xmlns="http://www.w3.org/2000/svg">
    <path d="M28.2553 23.2598C27.67 26.1313 25.0416 28.2988 22 28.2988C18.9584 28.2988 16.414 26.1313 15.8287 23.2598H13.309C13.9268 27.522 17.5694 30.8184 22 30.8184C26.4306 30.8184 30.1572 27.522 30.775 23.2598H28.2553Z" fill="white"/>
    <path d="M33.2946 23.2598C32.6585 28.9132 27.8207 33.3379 22 33.3379C16.1793 33.3379 11.4254 28.9132 10.7894 23.2598H0.5V24.5195C0.5 25.0621 0.848199 25.5443 1.36244 25.7153L6.54578 27.4069C6.76355 28.0245 6.99359 28.5867 7.23966 29.1058L4.84804 33.9112C4.60692 34.3958 4.70283 34.9802 5.08546 35.3628L8.63716 38.9145C9.02223 39.2996 9.60533 39.3906 10.0888 39.152L14.8942 36.7603C15.4134 37.0064 15.9755 37.2364 16.5931 37.4542L18.2847 42.6376C18.4557 43.1518 18.9379 43.5 19.4805 43.5H24.6035C25.1461 43.5 25.6283 43.1518 25.7993 42.6376L27.4909 37.4542C28.1085 37.2364 28.6707 37.0064 29.1898 36.7603L33.9952 39.152C34.4786 39.3918 35.063 39.2996 35.4468 38.9145L38.9985 35.3628C39.3812 34.9802 39.4771 34.3958 39.2359 33.9112L36.8443 29.1058C37.0904 28.5866 37.3204 28.0245 37.5382 27.4069L42.6376 25.7153C43.1518 25.5443 43.5 25.0621 43.5 24.5195V23.2598H33.2946Z" fill="white"/>
    <path d="M18.4527 23.2598C18.9745 24.7229 20.3598 25.7793 22 25.7793C23.6402 25.7793 25.1094 24.7229 25.6312 23.2598H18.4527Z" fill="white"/>
    <path d="M22 0.5C19.2209 0.5 16.9609 2.75994 16.9609 5.53906C16.9609 8.31819 19.2209 10.5781 22 10.5781C24.7791 10.5781 27.123 8.31819 27.123 5.53906C27.123 2.75994 24.7791 0.5 22 0.5Z" fill="white"/>
    <path d="M34.6816 0.5C31.9025 0.5 29.6426 2.75994 29.6426 5.53906C29.6426 8.31819 31.9025 10.5781 34.6816 10.5781C37.4608 10.5781 39.7207 8.31819 39.7207 5.53906C39.7207 2.75994 37.4608 0.5 34.6816 0.5Z" fill="white"/>
    <path d="M9.40234 0.5C6.62322 0.5 4.36328 2.75994 4.36328 5.53906C4.36328 8.31819 6.62322 10.5781 9.40234 10.5781C12.1815 10.5781 14.4414 8.31819 14.4414 5.53906C14.4414 2.75994 12.1815 0.5 9.40234 0.5Z" fill="white"/>
    <path d="M38.9787 11.7441C37.7568 12.5931 36.2791 13.0976 34.6816 13.0976C33.0908 13.0976 31.6177 12.5984 30.3987 11.7559C29.8462 12.0731 29.3151 12.4298 28.8343 12.8599C31.2842 14.6912 32.9852 17.5514 33.3449 20.7402H43.5V19.4805C43.5 16.1863 41.6623 13.2579 38.9787 11.7441Z" fill="white"/>
    <path d="M22 13.0977C17.565 13.0977 13.8841 16.4726 13.2714 20.7402H30.8125C30.1999 16.4726 26.4351 13.0977 22 13.0977Z" fill="white"/>
    <path d="M13.6853 11.7559C12.4663 12.5984 10.9932 13.0976 9.40234 13.0976C7.80488 13.0976 6.32717 12.5931 5.10528 11.7441C2.42165 13.2579 0.5 16.1863 0.5 19.4805V20.7402H10.739C11.0988 17.5514 12.7998 14.6912 15.2497 12.8599C14.7688 12.4298 14.2378 12.0731 13.6853 11.7559Z" fill="white"/>
</svg>
