<svg width="48" height="40" viewBox="0 0 48 40" fill="none" xmlns="http://www.w3.org/2000/svg">
    <path d="M33.4995 15.6009C32.6478 14.7492 31.2674 14.7492 30.4157 15.6009L24.1978 21.8185C23.89 21.7456 23.5695 21.7059 23.2397 21.7059C20.9511 21.7059 19.089 23.5694 19.089 25.8604C19.089 28.151 20.951 30.0149 23.2397 30.0149C25.5306 30.0149 27.3941 28.151 27.3941 25.8604C27.3941 25.5304 27.3544 25.2099 27.2814 24.9022L33.4994 18.6845C34.351 17.833 34.351 16.4523 33.4995 15.6009Z" fill="white"/>
    <path d="M40.9604 7.27078C31.6097 -2.07989 16.3918 -2.07989 7.0364 7.27106C-1.03825 15.3498 -2.28954 28.0929 4.06093 37.5711C4.73116 38.5716 6.08566 38.8387 7.08613 38.1686C8.0865 37.4984 8.35409 36.144 7.68368 35.1434C5.89937 32.48 4.8488 29.5016 4.50628 26.4707H6.55621C7.76038 26.4707 8.73669 25.4946 8.73669 24.2903C8.73669 23.0862 7.76038 22.1098 6.55621 22.1098H4.49935C4.8945 18.4878 6.28928 14.9715 8.64013 12.014L10.1239 13.4977C10.5497 13.9236 11.1077 14.1366 11.6656 14.1366C12.2236 14.1366 12.7817 13.9236 13.2073 13.4977C14.0589 12.6464 14.0589 11.2656 13.2073 10.4141L11.7173 8.92396C14.7195 6.5127 18.2713 5.11446 21.9114 4.72802V6.78721C21.9114 7.99158 22.8877 8.9677 24.0919 8.9677C25.296 8.9677 26.2723 7.99158 26.2723 6.78721V4.74797C29.8485 5.1611 33.3313 6.55372 36.2822 8.9248L34.7928 10.4142C33.9414 11.2658 33.9414 12.6463 34.7931 13.4981C35.2187 13.9237 35.7769 14.1367 36.3346 14.1367C36.8928 14.1367 37.4508 13.9237 37.8765 13.4978L39.3588 12.0156C41.7105 14.9726 43.1055 18.4884 43.5008 22.1101H41.4439C40.2398 22.1101 39.2634 23.0865 39.2634 24.2905C39.2634 25.4949 40.2398 26.471 41.4439 26.471H43.494C43.1514 29.5018 42.1006 32.4801 40.3157 35.1434C39.6451 36.1437 39.9126 37.4982 40.9127 38.1686C41.2856 38.4185 41.7074 38.5383 42.1247 38.5383C42.8275 38.5383 43.5174 38.1991 43.9382 37.5716C50.2913 28.0924 49.039 15.3493 40.9604 7.27078Z" fill="white"/>
    <path d="M33.8274 35.3796H14.173C12.9688 35.3796 11.9925 36.356 11.9925 37.5601C11.9925 38.7644 12.9688 39.7406 14.173 39.7406H33.8275C35.0318 39.7406 36.0079 38.7644 36.0079 37.5601C36.0079 36.356 35.0317 35.3796 33.8274 35.3796Z" fill="white"/>
</svg>
