<svg width="172" height="45" viewBox="0 0 172 45" fill="none" xmlns="http://www.w3.org/2000/svg">
    <path d="M10.0067 23.1712L7.29995 27.7234C7.0949 28.0515 7.01288 28.4206 7.01288 28.8307V44.6199L1.96853 41.7082C0.738198 41.011 0 39.6986 0 38.2632V6.3567C0 4.92132 0.738198 3.60897 2.00954 2.91178L7.01288 0V15.7892C7.01288 16.1583 7.13591 16.5684 7.29995 16.8965L10.0067 21.4487C10.3348 21.9819 10.3348 22.6381 10.0067 23.1712Z" fill="#0F5948"/>
    <path d="M7.01294 0V8.12017L17.5528 14.1898V30.3891L14.0258 32.3987L7.01294 36.4998V44.6199L21.0797 36.4998L22.5971 35.6385C23.8274 34.9413 24.5656 33.629 24.5656 32.1936V12.4263C24.5656 10.9909 23.8274 9.67859 22.5561 8.9814L7.01294 0Z" fill="#65BC55"/>
    <path d="M34.0391 27.7234V16.6914H37.1149V21.1616L40.9289 16.6914H44.5379L40.3137 21.4487L44.6199 27.7234H40.9289L38.1402 23.6223L37.0329 24.8526V27.7234H34.0391Z" fill="#232323"/>
    <path d="M49.7053 27.9287C48.3519 27.9287 47.2446 27.4776 46.3424 26.6163C45.4401 25.7551 44.989 24.6888 44.989 23.4585C44.989 22.2281 45.4401 21.1619 46.3424 20.3006C47.2446 19.4394 48.3519 18.9883 49.7053 18.9883C51.0586 18.9883 52.1659 19.4394 53.0682 20.3006C53.9704 21.1619 54.4215 22.2281 54.4215 23.4585C54.4215 24.6888 53.9704 25.7551 53.0682 26.6163C52.2069 27.4776 51.0586 27.9287 49.7053 27.9287ZM49.7463 25.386C50.2794 25.386 50.7306 25.2219 51.0586 24.8528C51.3867 24.4838 51.5508 24.0326 51.5508 23.4995C51.5508 22.9663 51.3867 22.5152 51.0176 22.1461C50.6895 21.777 50.2384 21.572 49.7053 21.572C49.1721 21.572 48.721 21.736 48.3929 22.1051C48.0648 22.4742 47.9008 22.9253 47.9008 23.4585C47.9008 23.9916 48.0648 24.4427 48.4339 24.8118C48.803 25.1809 49.2131 25.386 49.7463 25.386Z" fill="#232323"/>
    <path d="M55.6929 27.7236V19.1934H58.7277L60.6962 22.1461L62.6647 19.1934H65.6995V27.7236H62.7468V23.4995L60.6552 26.4113L58.6457 23.5815V27.7236H55.6929Z" fill="#232323"/>
    <path d="M72.1381 30.266V27.3543C71.6049 27.7234 71.0308 27.8874 70.4977 27.8874C69.4724 27.8874 68.6522 27.4773 67.996 26.6981C67.3398 25.9189 67.0527 24.8116 67.0527 23.4582C67.0527 22.1049 67.3808 21.0386 67.996 20.2594C68.6522 19.4802 69.4724 19.07 70.4977 19.07C71.0718 19.07 71.6049 19.2751 72.1381 19.6852V16.6914H75.1319V19.6852C75.624 19.2751 76.1982 19.07 76.7723 19.07C77.7976 19.07 78.6178 19.4802 79.274 20.2594C79.9302 21.0386 80.2173 22.1049 80.2173 23.4582C80.2173 24.8116 79.8892 25.9189 79.274 26.6981C78.6588 27.4773 77.7976 27.8874 76.7723 27.8874C76.1982 27.8874 75.624 27.7234 75.1319 27.3543V30.266H72.1381ZM71.3999 25.4678C71.687 25.4678 71.933 25.4267 72.1381 25.3037V21.6537C71.892 21.5307 71.646 21.4897 71.3999 21.4897C70.9078 21.4897 70.5797 21.6537 70.3336 22.0228C70.0875 22.3919 69.9645 22.8841 69.9645 23.4582C69.9645 24.0324 70.0875 24.5245 70.3336 24.8936C70.5797 25.2627 70.9488 25.4678 71.3999 25.4678ZM75.8701 25.4678C76.3622 25.4678 76.6903 25.3037 76.9364 24.9346C77.1824 24.5655 77.3055 24.0734 77.3055 23.4582C77.3055 22.8841 77.1824 22.3919 76.9364 22.0228C76.6903 21.6537 76.3212 21.4897 75.8701 21.4897C75.624 21.4897 75.378 21.5307 75.1319 21.6537V25.3037C75.3369 25.3857 75.583 25.4678 75.8701 25.4678Z" fill="#232323"/>
    <path d="M85.8769 27.9287C84.5235 27.9287 83.4162 27.4776 82.514 26.6163C81.6118 25.7551 81.1606 24.6888 81.1606 23.4585C81.1606 22.2281 81.6118 21.1619 82.514 20.3006C83.4162 19.4394 84.5235 18.9883 85.8769 18.9883C87.2303 18.9883 88.3376 19.4394 89.2398 20.3006C90.1421 21.1619 90.5932 22.2281 90.5932 23.4585C90.5932 24.6888 90.1421 25.7551 89.2398 26.6163C88.3376 27.4776 87.2303 27.9287 85.8769 27.9287ZM85.9179 25.386C86.4511 25.386 86.9022 25.2219 87.2303 24.8528C87.5584 24.4838 87.7224 24.0326 87.7224 23.4995C87.7224 22.9663 87.5584 22.5152 87.1893 22.1461C86.8612 21.777 86.41 21.572 85.8769 21.572C85.3438 21.572 84.8926 21.736 84.5646 22.1051C84.2365 22.4742 84.0724 22.9253 84.0724 23.4585C84.0724 23.9916 84.2365 24.4427 84.6056 24.8118C84.9747 25.1809 85.3848 25.386 85.9179 25.386Z" fill="#232323"/>
    <path d="M91.8645 30.2661V19.1931H94.8583V20.3414C95.5965 19.4392 96.4577 19.0291 97.442 19.0291C98.5083 19.0291 99.3695 19.4392 100.108 20.2594C100.846 21.0796 101.215 22.1459 101.215 23.4992C101.215 24.8526 100.846 25.9189 100.108 26.7391C99.3695 27.5593 98.4673 27.9694 97.442 27.9694C96.4167 27.9694 95.5555 27.5593 94.8583 26.7391V30.3071H91.8645V30.2661ZM96.5397 25.3858C97.0319 25.3858 97.442 25.2217 97.7701 24.8526C98.0982 24.4835 98.2622 23.9914 98.2622 23.4172C98.2622 22.8431 98.0982 22.392 97.7701 22.0229C97.442 21.6538 97.0319 21.4897 96.5397 21.4897C96.0476 21.4897 95.6375 21.6538 95.3094 22.0229C94.9813 22.392 94.8173 22.8431 94.8173 23.4172C94.8173 23.9914 94.9813 24.4425 95.3094 24.8116C95.6375 25.2217 96.0476 25.3858 96.5397 25.3858Z" fill="#232323"/>
    <path d="M104.373 27.7236V21.613H101.871V19.1934H109.868V21.613H107.367V27.7236H104.373Z" fill="#232323"/>
    <path d="M119.301 27.9287C118.029 27.9287 116.963 27.4776 116.102 26.6163C115.241 25.7551 114.831 24.6888 114.831 23.4585C114.831 22.2281 115.282 21.1619 116.143 20.3006C117.004 19.4394 118.111 18.9883 119.424 18.9883C121.064 18.9883 122.254 19.6445 123.074 20.9158L121.064 22.3512C120.654 21.777 120.162 21.531 119.506 21.531C118.973 21.531 118.563 21.695 118.234 22.0641C117.906 22.4332 117.742 22.8843 117.742 23.4175C117.742 23.9916 117.906 24.4427 118.234 24.8118C118.563 25.1809 118.973 25.345 119.465 25.345C119.793 25.345 120.08 25.263 120.326 25.1399C120.572 24.9759 120.818 24.7708 121.064 24.4427L123.115 25.9191C122.213 27.2725 120.941 27.9287 119.301 27.9287Z" fill="#232323"/>
    <path d="M128.364 27.9284C127.011 27.9284 125.904 27.5183 125.083 26.6981C124.222 25.8779 123.812 24.8116 123.812 23.4582C123.812 22.1869 124.222 21.1206 125.042 20.3004C125.863 19.4392 126.888 19.0291 128.118 19.0291C129.513 19.0291 130.579 19.4802 131.317 20.3414C132.055 21.2436 132.424 22.3509 132.424 23.7043C132.424 23.9914 132.424 24.1964 132.424 24.3195H126.724C126.97 25.2627 127.585 25.7138 128.569 25.7138C129.225 25.7138 129.882 25.4268 130.456 24.8526L132.096 26.206C131.153 27.3543 129.923 27.9284 128.364 27.9284ZM126.642 22.761H129.595C129.554 22.2689 129.39 21.8998 129.102 21.6538C128.856 21.3667 128.487 21.2436 128.077 21.2436C127.708 21.2436 127.38 21.3667 127.093 21.6538C126.888 21.8998 126.724 22.2689 126.642 22.761Z" fill="#232323"/>
    <path d="M133.696 30.2661V19.1931H136.689V20.3414C137.428 19.4392 138.289 19.0291 139.273 19.0291C140.339 19.0291 141.201 19.4392 141.939 20.2594C142.677 21.0796 143.046 22.1459 143.046 23.4992C143.046 24.8526 142.677 25.9189 141.939 26.7391C141.201 27.5593 140.298 27.9694 139.273 27.9694C138.248 27.9694 137.387 27.5593 136.689 26.7391V30.3071H133.696V30.2661ZM138.371 25.3858C138.863 25.3858 139.273 25.2217 139.601 24.8526C139.929 24.4835 140.093 23.9914 140.093 23.4172C140.093 22.8431 139.929 22.392 139.601 22.0229C139.273 21.6538 138.863 21.4897 138.371 21.4897C137.879 21.4897 137.469 21.6538 137.141 22.0229C136.813 22.392 136.648 22.8431 136.648 23.4172C136.648 23.9914 136.813 24.4425 137.141 24.8116C137.469 25.2217 137.879 25.3858 138.371 25.3858Z" fill="#232323"/>
    <path d="M144.359 27.7236V19.1934H149.403C150.428 19.1934 151.207 19.4394 151.74 19.9726C152.11 20.3007 152.274 20.7928 152.274 21.3669C152.274 22.2692 151.823 22.8843 150.961 23.2945C151.494 23.4585 151.905 23.7456 152.192 24.0737C152.479 24.4018 152.602 24.8529 152.602 25.427C152.602 26.1652 152.315 26.7394 151.74 27.1495C151.166 27.5596 150.387 27.7647 149.362 27.7647H144.359V27.7236ZM147.27 22.5973H148.296C148.624 22.5973 148.911 22.5152 149.075 22.3922C149.28 22.2692 149.362 22.0641 149.362 21.8591C149.362 21.654 149.28 21.449 149.075 21.3259C148.911 21.2029 148.624 21.1209 148.337 21.1209H147.27V22.5973ZM147.27 25.7961H148.501C148.829 25.7961 149.116 25.7141 149.321 25.5911C149.526 25.468 149.608 25.263 149.608 25.0169C149.608 24.7709 149.526 24.6068 149.321 24.4428C149.116 24.2787 148.829 24.2377 148.46 24.2377H147.27V25.7961Z" fill="#232323"/>
    <path d="M153.955 27.7236V19.1934H156.867V23.4585L159.697 19.1934H162.444V27.7236H159.533V23.4585L156.703 27.7236H153.955Z" fill="#232323"/>
    <path d="M168.186 27.9287C166.915 27.9287 165.848 27.4776 164.987 26.6163C164.126 25.7551 163.716 24.6888 163.716 23.4585C163.716 22.2281 164.167 21.1619 165.028 20.3006C165.889 19.4394 166.997 18.9883 168.309 18.9883C169.949 18.9883 171.139 19.6445 171.959 20.9158L169.949 22.3512C169.539 21.777 169.047 21.531 168.391 21.531C167.858 21.531 167.448 21.695 167.12 22.0641C166.792 22.4332 166.627 22.8843 166.627 23.4175C166.627 23.9916 166.792 24.4427 167.12 24.8118C167.448 25.1809 167.858 25.345 168.35 25.345C168.678 25.345 168.965 25.263 169.211 25.1399C169.457 24.9759 169.703 24.7708 169.949 24.4427L172 25.9191C171.098 27.2725 169.826 27.9287 168.186 27.9287Z" fill="#232323"/>
</svg>
