<svg width="64" height="45" viewBox="0 0 64 45" fill="none" xmlns="http://www.w3.org/2000/svg">
    <rect x="22.5176" y="10.1611" width="25.2597" height="24.5949" fill="white"/>
    <path d="M62.3612 7.72045C61.6383 5.03603 59.5195 2.91993 56.8325 2.1971C51.9237 0.855469 32.288 0.855469 32.288 0.855469C32.288 0.855469 12.6531 0.855469 7.74433 2.14624C5.10901 2.8683 2.93851 5.03641 2.21564 7.72045C0.923828 12.6235 0.923828 22.7917 0.923828 22.7917C0.923828 22.7917 0.923828 33.0111 2.21564 37.8629C2.93927 40.5469 5.05733 42.663 7.74471 43.3858C12.7048 44.7278 32.2888 44.7278 32.2888 44.7278C32.2888 44.7278 51.9237 44.7278 56.8325 43.4371C59.5199 42.7146 61.6383 40.5985 62.3619 37.9145C63.6534 33.0111 63.6534 22.8433 63.6534 22.8433C63.6534 22.8433 63.7051 12.6235 62.3612 7.72045ZM26.0365 32.1854V13.3979L42.3645 22.7917L26.0365 32.1854Z" fill="#EF4136"/>
</svg>
