<svg width="24" height="24" viewBox="0 0 24 24" fill="none" xmlns="http://www.w3.org/2000/svg">
    <path fill-rule="evenodd" clip-rule="evenodd" d="M12 22C17.5228 22 22 17.5228 22 12C22 6.47715 17.5228 2 12 2C6.47715 2 2 6.47715 2 12C2 17.5228 6.47715 22 12 22ZM12 24C18.6274 24 24 18.6274 24 12C24 5.37258 18.6274 0 12 0C5.37258 0 0 5.37258 0 12C0 18.6274 5.37258 24 12 24Z" fill="#85BC5D"/>
    <path fill-rule="evenodd" clip-rule="evenodd" d="M9.69289 17.5071C9.30237 17.1166 9.30237 16.4834 9.69289 16.0929L13.7858 12L9.69289 7.90711C9.30237 7.51658 9.30237 6.88342 9.69289 6.49289C10.0834 6.10237 10.7166 6.10237 11.1071 6.49289L15.9071 11.2929C16.0946 11.4804 16.2 11.7348 16.2 12C16.2 12.2652 16.0946 12.5196 15.9071 12.7071L11.1071 17.5071C10.7166 17.8976 10.0834 17.8976 9.69289 17.5071Z" fill="#85BC5D"/>
</svg>
