<svg width="24" height="24" viewBox="0 0 24 24" fill="none" xmlns="http://www.w3.org/2000/svg">
    <path fill-rule="evenodd" clip-rule="evenodd" d="M12 2C6.47715 2 2 6.47715 2 12C2 17.5228 6.47715 22 12 22C17.5228 22 22 17.5228 22 12C22 6.47715 17.5228 2 12 2ZM12 8.58275e-07C5.37258 2.78888e-07 -2.78888e-07 5.37258 -8.58275e-07 12C-1.43766e-06 18.6274 5.37258 24 12 24C18.6274 24 24 18.6274 24 12C24 5.37258 18.6274 1.43766e-06 12 8.58275e-07Z" fill="#85BC5D"/>
    <path fill-rule="evenodd" clip-rule="evenodd" d="M14.3071 6.49289C14.6976 6.88342 14.6976 7.51658 14.3071 7.90711L10.2142 12L14.3071 16.0929C14.6976 16.4834 14.6976 17.1166 14.3071 17.5071C13.9166 17.8976 13.2834 17.8976 12.8929 17.5071L8.09289 12.7071C7.90536 12.5196 7.8 12.2652 7.8 12C7.8 11.7348 7.90536 11.4804 8.09289 11.2929L12.8929 6.49289C13.2834 6.10237 13.9166 6.10237 14.3071 6.49289Z" fill="#85BC5D"/>
</svg>
