<svg xmlns="http://www.w3.org/2000/svg" display="none">
    <symbol id="vk" viewBox="0 0 26 15">
        <path fill-rule="evenodd" clip-rule="evenodd"
              d="M21.9942 9.19569C22.842 10.0233 23.7367 10.802 24.497 11.7131C24.8329 12.118 25.1508 12.5358 25.3941 13.0057C25.7388 13.6736 25.4266 14.4087 24.8276 14.4485L21.1046 14.4469C20.1444 14.5265 19.3784 14.14 18.7343 13.4835C18.2188 12.9584 17.7415 12.3996 17.2459 11.8569C17.0427 11.635 16.83 11.4263 16.5759 11.2613C16.0677 10.9314 15.6265 11.0324 15.3361 11.5625C15.0403 12.1016 14.9732 12.6986 14.9441 13.2995C14.9042 14.1762 14.6392 14.4066 13.7586 14.4468C11.8766 14.5355 10.0905 14.2508 8.43128 13.3014C6.96844 12.4645 5.83407 11.2829 4.84673 9.94525C2.92435 7.34056 1.45219 4.47845 0.129064 1.53614C-0.16876 0.873237 0.0490457 0.517393 0.780466 0.504798C1.99502 0.481204 3.20941 0.482884 4.42539 0.503119C4.91902 0.51034 5.24581 0.79347 5.43641 1.25981C6.09352 2.87555 6.89757 4.41279 7.90683 5.83767C8.17561 6.21703 8.44967 6.59638 8.83994 6.86339C9.27169 7.15903 9.60041 7.06105 9.80352 6.58009C9.93241 6.27513 9.98883 5.94666 10.0179 5.62004C10.1141 4.49633 10.1268 3.37456 9.95802 2.2548C9.8544 1.55596 9.46078 1.10355 8.76345 0.971308C8.4076 0.903884 8.46058 0.771472 8.63288 0.56836C8.93213 0.218058 9.21358 0 9.77464 0H13.9822C14.6446 0.130734 14.7917 0.428306 14.8824 1.09482L14.886 5.76857C14.8788 6.02659 15.0149 6.79227 15.4796 6.96306C15.8516 7.08464 16.0968 6.78707 16.32 6.55121C17.3274 5.482 18.0464 4.21841 18.6887 2.90998C18.9738 2.33465 19.2189 1.73715 19.4564 1.14016C19.6324 0.697162 19.9086 0.479189 20.4076 0.488845L24.4571 0.492455C24.5772 0.492455 24.6987 0.494219 24.815 0.514118C25.4974 0.63041 25.6843 0.923952 25.4736 1.5903C25.1415 2.63575 24.4954 3.50697 23.8636 4.38222C23.1883 5.31667 22.466 6.21913 21.7963 7.15912C21.181 8.01749 21.2299 8.45016 21.9942 9.19569Z"/>
    </symbol>

    <symbol id="instagram" viewBox="0 0 20 20">
        <path d="M14.3772 0H5.8079C2.89782 0 0.530273 2.36766 0.530273 5.27774V13.847C0.530273 16.7572 2.89782 19.1248 5.8079 19.1248H14.3772C17.2875 19.1248 19.655 16.7571 19.655 13.847V5.27774C19.6551 2.36766 17.2875 0 14.3772 0ZM17.9583 13.847C17.9583 15.8216 16.3518 17.4279 14.3773 17.4279H5.8079C3.83346 17.428 2.22711 15.8216 2.22711 13.847V5.27774C2.22711 3.3033 3.83346 1.69684 5.8079 1.69684H14.3772C16.3517 1.69684 17.9582 3.3033 17.9582 5.27774L17.9583 13.847Z"/>
        <path d="M10.0925 4.63477C7.37519 4.63477 5.16455 6.84541 5.16455 9.56273C5.16455 12.2799 7.37519 14.4905 10.0925 14.4905C12.8098 14.4905 15.0205 12.2799 15.0205 9.56273C15.0205 6.84541 12.8098 4.63477 10.0925 4.63477ZM10.0925 12.7935C8.31095 12.7935 6.86139 11.3442 6.86139 9.56262C6.86139 7.78093 8.31083 6.33149 10.0925 6.33149C11.8742 6.33149 13.3236 7.78093 13.3236 9.56262C13.3236 11.3442 11.8741 12.7935 10.0925 12.7935Z"/>
        <path d="M15.2273 3.1958C14.9003 3.1958 14.5792 3.32815 14.3483 3.56006C14.1163 3.79083 13.9829 4.11209 13.9829 4.44015C13.9829 4.76719 14.1164 5.08834 14.3483 5.32025C14.5791 5.55102 14.9003 5.6845 15.2273 5.6845C15.5553 5.6845 15.8755 5.55102 16.1074 5.32025C16.3393 5.08834 16.4716 4.76708 16.4716 4.44015C16.4716 4.11209 16.3393 3.79083 16.1074 3.56006C15.8766 3.32815 15.5553 3.1958 15.2273 3.1958Z"/>
    </symbol>

    <symbol id="fb" viewBox="0 0 10 19">
        <path d="M9.52254 0.00378555L7.1632 0C4.51256 0 2.7996 1.75744 2.7996 4.47755V6.542H0.427381C0.222393 6.542 0.0563965 6.70819 0.0563965 6.91317V9.90433C0.0563965 10.1093 0.222582 10.2753 0.427381 10.2753H2.7996V17.8229C2.7996 18.0279 2.96559 18.1939 3.17058 18.1939H6.26565C6.47063 18.1939 6.63663 18.0277 6.63663 17.8229V10.2753H9.4103C9.61529 10.2753 9.78129 10.1093 9.78129 9.90433L9.78242 6.91317C9.78242 6.81475 9.74324 6.72049 9.67378 6.65083C9.60431 6.58118 9.50967 6.542 9.41125 6.542H6.63663V4.79194C6.63663 3.95079 6.83708 3.52378 7.9328 3.52378L9.52217 3.52321C9.72696 3.52321 9.89296 3.35703 9.89296 3.15223V0.37477C9.89296 0.170161 9.72715 0.00416411 9.52254 0.00378555Z"/>
    </symbol>

    <symbol id="ok" viewBox="0 0 11 19">
        <path d="M4.64205 12.8153C3.23162 12.6682 1.9599 12.3208 0.871117 11.4692C0.736019 11.3633 0.596539 11.2612 0.473255 11.1428C-0.003304 10.6851 -0.051322 10.1609 0.325771 9.62073C0.648368 9.15846 1.1899 9.0348 1.75278 9.30023C1.86177 9.35168 1.96562 9.41589 2.06509 9.48487C4.09422 10.8791 6.88174 10.9176 8.9185 9.54756C9.12029 9.39284 9.33599 9.26669 9.58599 9.20229C10.0721 9.07748 10.5254 9.25602 10.7862 9.68132C11.0843 10.167 11.0805 10.6411 10.7133 11.0182C10.15 11.5963 9.47261 12.0146 8.71995 12.3065C8.00826 12.5824 7.22873 12.7213 6.4572 12.8135C6.57363 12.9403 6.6285 13.0026 6.70129 13.0757C7.74892 14.1283 8.80112 15.1765 9.84532 16.2323C10.2011 16.5921 10.2754 17.0382 10.0795 17.4566C9.86533 17.9139 9.38591 18.2148 8.91583 18.1826C8.61801 18.162 8.38573 18.0138 8.17937 17.8059C7.38879 17.0103 6.58334 16.2295 5.80877 15.4189C5.58335 15.1832 5.47493 15.2278 5.276 15.4324C4.48065 16.2512 3.67235 17.0574 2.85929 17.859C2.4942 18.219 2.05975 18.2838 1.63636 18.0782C1.18628 17.86 0.89989 17.4006 0.921993 16.9389C0.937237 16.6266 1.09082 16.388 1.30518 16.174C2.34195 15.1388 3.37586 14.1009 4.41015 13.0639C4.47856 12.9949 4.54239 12.9218 4.64205 12.8153Z"/>
        <path d="M5.50111 9.20898C2.98493 9.2004 0.921685 7.11448 0.936357 4.5943C0.950839 2.04631 3.01542 -0.00703215 5.55637 1.81013e-05C8.10246 0.0068778 10.1461 2.08975 10.1333 4.66423C10.1204 7.17927 8.04282 9.21774 5.50111 9.20898ZM7.78786 4.6004C7.78348 3.34908 6.78692 2.3529 5.53807 2.35175C4.27875 2.35042 3.27323 3.3647 3.28295 4.62746C3.29228 5.87402 4.29742 6.86315 5.5497 6.85858C6.79816 6.85419 7.79206 5.85153 7.78786 4.6004Z"/>
    </symbol>

    <symbol id="size" viewBox="0 0 44 54">
        <path d="M18.8254 0.00137105H1.7114C0.766171 0.00137105 0 0.756805 0 1.68879V52.3112C0 53.2432 0.766171 53.9986 1.7114 53.9986H18.8254C19.7706 53.9986 20.5368 53.2432 20.5368 52.3112V1.68879C20.5368 0.756805 19.7705 0.00137105 18.8254 0.00137105ZM17.114 50.6238H3.42279V45.5616H11.9798V42.1867H3.42279V37.1245H8.55698V33.7497H3.42279V28.6874H11.9798V25.3126H3.42279V20.2503H8.55698V16.8755H3.42279V11.8133H11.9798V8.43844H3.42279V3.3762H17.114V50.6238Z"/>
        <path d="M41.5869 42.693L35.9393 48.2445V5.75545L41.5698 11.307L43.9829 8.92779L35.4259 0.490721C34.7584 -0.163574 33.6804 -0.163574 33.0128 0.490721L24.4559 8.92779L26.8689 11.307L32.5165 5.75545V48.2445L26.886 42.693L24.473 45.0722L33.0299 53.5093C33.6975 54.1636 34.7755 54.1636 35.443 53.5093L44 45.0722L41.5869 42.693Z"/>
    </symbol>

    <symbol id="location" viewBox="0 0 13 18">
        <path fill-rule="evenodd" clip-rule="evenodd"
              d="M6.0835 17.5205C6.0835 17.5205 12.167 9.44332 12.167 6.0835C12.167 2.72367 9.44332 0 6.0835 0C2.72367 0 0 2.72367 0 6.0835C0 9.44332 6.0835 17.5205 6.0835 17.5205ZM6.08348 8.76059C7.5618 8.76059 8.76022 7.56217 8.76022 6.08385C8.76022 4.60553 7.5618 3.40711 6.08348 3.40711C4.60516 3.40711 3.40674 4.60553 3.40674 6.08385C3.40674 7.56217 4.60516 8.76059 6.08348 8.76059Z"/>
    </symbol>


    <symbol id="star" viewBox="0 0 15 14">
        <path d="M14.9609 5.29043C14.8627 4.99462 14.5933 4.78452 14.2745 4.75654L9.94515 4.37368L8.23319 0.47114C8.10695 0.185135 7.81947 0 7.50006 0C7.18065 0 6.89317 0.185134 6.76693 0.471809L5.05497 4.37368L0.724884 4.75654C0.406731 4.78519 0.138017 4.99462 0.0392523 5.29043C-0.0595126 5.58625 0.031699 5.91071 0.272374 6.11523L3.54489 8.91042L2.5799 13.0504C2.50929 13.3548 2.6306 13.6694 2.88993 13.852C3.02932 13.9501 3.1924 14 3.35686 14C3.49865 14 3.63931 13.9628 3.76554 13.8892L7.50006 11.7154L11.2332 13.8892C11.5064 14.0493 11.8507 14.0347 12.1095 13.852C12.3689 13.6689 12.4901 13.3541 12.4195 13.0504L11.4545 8.91042L14.7271 6.11579C14.9677 5.91071 15.0596 5.5868 14.9609 5.29043Z"/>
    </symbol>

    <symbol id="check" viewBox="0 0 34 34">
        <path fill-rule="evenodd" clip-rule="evenodd"
              d="M17 31.2538C24.8722 31.2538 31.2538 24.8722 31.2538 17C31.2538 9.12782 24.8722 2.74615 17 2.74615C9.12782 2.74615 2.74615 9.12782 2.74615 17C2.74615 24.8722 9.12782 31.2538 17 31.2538ZM17 34C26.3888 34 34 26.3888 34 17C34 7.61116 26.3888 0 17 0C7.61116 0 0 7.61116 0 17C0 26.3888 7.61116 34 17 34Z"/>
        <path fill-rule="evenodd" clip-rule="evenodd"
              d="M25.8825 10.2752C26.4187 10.8115 26.4187 11.6808 25.8825 12.2171L14.8978 23.2017C14.3708 23.7287 13.5197 23.7391 12.98 23.2251L7.48767 17.9943C6.93853 17.4713 6.91734 16.6022 7.44032 16.0531C7.96331 15.5039 8.83243 15.4827 9.38157 16.0057L13.9035 20.3123L23.9406 10.2752C24.4768 9.73902 25.3462 9.73902 25.8825 10.2752Z"/>
    </symbol>

    <symbol id="window1" viewBox="0 0 44 72">
        <path d="M0 0V72H44V0H0ZM42.2162 70.2H1.78378V1.8H42.2162V70.2Z"/>
        <path d="M39.5405 4.5H4.45946V67.5H39.5405V4.5ZM37.7568 65.7H6.24324V6.3H37.7568V65.7Z"/>
    </symbol>

    <symbol id="window2" viewBox="0 0 77 64">
        <path d="M35.3962 3.95511H3.93959V59.9851H35.3962V3.95511ZM33.6055 58.2473H5.73029V5.75287H33.6055V58.2473Z"/>
        <path d="M0 0V64H77V0H0ZM37.6046 62.2023H1.7907V1.79775H37.6046V62.2023ZM75.2093 62.2023H39.3953V1.79775H75.2093V62.2023Z"/>
        <path d="M73.0008 3.95511H41.5442V59.9851H73.0008V3.95511ZM71.2101 58.2473H43.3349V5.75287H71.2101V58.2473Z"/>
    </symbol>

    <symbol id="window3" viewBox="0 0 76 42">
        <path d="M23.5125 2.59545H2.67188V39.3455H23.5125V2.59545ZM22.325 38.2247H3.85938V3.77522H22.325V38.2247Z"/>
        <path d="M48.45 2.59545H27.6094V39.3455H48.45V2.59545ZM47.2625 38.2247H28.7969V3.77522H47.2625V38.2247Z"/>
        <path d="M0 0V42H76V0H0ZM24.9375 40.8202H1.1875V1.17978H24.9375V40.8202ZM49.875 40.8202H26.125V1.17978H49.875V40.8202ZM74.8125 40.8202H51.0625V1.17978H74.8125V40.8202Z"/>
        <path d="M73.3875 2.59545H52.5469V39.3455H73.3875V2.59545ZM72.2 38.2247H53.7344V3.77522H72.2V38.2247Z"/>
    </symbol>

    <symbol id="window4" viewBox="0 0 38 77">
        <path d="M33.5469 3.9992H4.45312V50.438H33.5469V3.9992ZM31.7656 48.6473H6.23438V5.78989H31.7656V48.6473Z"/>
        <path d="M0 0V77H38V0H0ZM36.2187 75.2093H1.78125V1.7907H36.2187V75.2093Z"/>
    </symbol>

    <symbol id="window5" viewBox="0 0 75 77">
        <path d="M75 0H0V77H32.4V50.1395H75V0ZM30.6 75.2093H1.8V1.7907H30.6V75.2093ZM73.2 48.3488H32.4V1.7907H73.2V48.3488Z"/>
        <path d="M70.5 4.47674H35.1V45.6628H70.5V4.47674ZM68.7 43.8721H36.9V6.26744H68.7V43.8721Z"/>
        <path d="M4.5 50.438H27.9V3.9992H4.5V50.438ZM6.3 5.78989H26.1V48.6473H6.3V5.78989Z"/>
    </symbol>

    <symbol id="window6" viewBox="0 0 78 77">
        <path d="M50.5227 4.47674H34.5682V45.6628H50.5227V4.47674ZM48.75 43.8721H36.3409V6.26744H48.75V43.8721Z"/>
        <path d="M0 0V77H31.9091V50.1395H78V0H0ZM30.1364 75.2093H1.77273V1.7907H30.1364V75.2093ZM53.1818 48.3488H31.9091V1.7907H53.1818V48.3488ZM76.2273 48.3488H54.9545V1.7907H76.2273V48.3488Z"/>
        <path d="M73.5682 4.47674H57.6136V45.6628H73.5682V4.47674ZM71.7955 43.8721H59.3864V6.26744H71.7955V43.8721Z"/>
        <path d="M4.43182 50.438H27.4773V3.9992H4.43182V50.438ZM6.20455 5.78989H25.7045V48.6473H6.20455V5.78989Z"/>
    </symbol>

</svg>