<svg xmlns="http://www.w3.org/2000/svg" display="none">
    <symbol id="vk" viewBox="0 0 26 15">
        <path fill-rule="evenodd" clip-rule="evenodd"
              d="M21.9942 9.19569C22.842 10.0233 23.7367 10.802 24.497 11.7131C24.8329 12.118 25.1508 12.5358 25.3941 13.0057C25.7388 13.6736 25.4266 14.4087 24.8276 14.4485L21.1046 14.4469C20.1444 14.5265 19.3784 14.14 18.7343 13.4835C18.2188 12.9584 17.7415 12.3996 17.2459 11.8569C17.0427 11.635 16.83 11.4263 16.5759 11.2613C16.0677 10.9314 15.6265 11.0324 15.3361 11.5625C15.0403 12.1016 14.9732 12.6986 14.9441 13.2995C14.9042 14.1762 14.6392 14.4066 13.7586 14.4468C11.8766 14.5355 10.0905 14.2508 8.43128 13.3014C6.96844 12.4645 5.83407 11.2829 4.84673 9.94525C2.92435 7.34056 1.45219 4.47845 0.129064 1.53614C-0.16876 0.873237 0.0490457 0.517393 0.780466 0.504798C1.99502 0.481204 3.20941 0.482884 4.42539 0.503119C4.91902 0.51034 5.24581 0.79347 5.43641 1.25981C6.09352 2.87555 6.89757 4.41279 7.90683 5.83767C8.17561 6.21703 8.44967 6.59638 8.83994 6.86339C9.27169 7.15903 9.60041 7.06105 9.80352 6.58009C9.93241 6.27513 9.98883 5.94666 10.0179 5.62004C10.1141 4.49633 10.1268 3.37456 9.95802 2.2548C9.8544 1.55596 9.46078 1.10355 8.76345 0.971308C8.4076 0.903884 8.46058 0.771472 8.63288 0.56836C8.93213 0.218058 9.21358 0 9.77464 0H13.9822C14.6446 0.130734 14.7917 0.428306 14.8824 1.09482L14.886 5.76857C14.8788 6.02659 15.0149 6.79227 15.4796 6.96306C15.8516 7.08464 16.0968 6.78707 16.32 6.55121C17.3274 5.482 18.0464 4.21841 18.6887 2.90998C18.9738 2.33465 19.2189 1.73715 19.4564 1.14016C19.6324 0.697162 19.9086 0.479189 20.4076 0.488845L24.4571 0.492455C24.5772 0.492455 24.6987 0.494219 24.815 0.514118C25.4974 0.63041 25.6843 0.923952 25.4736 1.5903C25.1415 2.63575 24.4954 3.50697 23.8636 4.38222C23.1883 5.31667 22.466 6.21913 21.7963 7.15912C21.181 8.01749 21.2299 8.45016 21.9942 9.19569Z"/>
    </symbol>

    <symbol id="instagram" viewBox="0 0 20 20">
        <path d="M14.3772 0H5.8079C2.89782 0 0.530273 2.36766 0.530273 5.27774V13.847C0.530273 16.7572 2.89782 19.1248 5.8079 19.1248H14.3772C17.2875 19.1248 19.655 16.7571 19.655 13.847V5.27774C19.6551 2.36766 17.2875 0 14.3772 0ZM17.9583 13.847C17.9583 15.8216 16.3518 17.4279 14.3773 17.4279H5.8079C3.83346 17.428 2.22711 15.8216 2.22711 13.847V5.27774C2.22711 3.3033 3.83346 1.69684 5.8079 1.69684H14.3772C16.3517 1.69684 17.9582 3.3033 17.9582 5.27774L17.9583 13.847Z"/>
        <path d="M10.0925 4.63477C7.37519 4.63477 5.16455 6.84541 5.16455 9.56273C5.16455 12.2799 7.37519 14.4905 10.0925 14.4905C12.8098 14.4905 15.0205 12.2799 15.0205 9.56273C15.0205 6.84541 12.8098 4.63477 10.0925 4.63477ZM10.0925 12.7935C8.31095 12.7935 6.86139 11.3442 6.86139 9.56262C6.86139 7.78093 8.31083 6.33149 10.0925 6.33149C11.8742 6.33149 13.3236 7.78093 13.3236 9.56262C13.3236 11.3442 11.8741 12.7935 10.0925 12.7935Z"/>
        <path d="M15.2273 3.1958C14.9003 3.1958 14.5792 3.32815 14.3483 3.56006C14.1163 3.79083 13.9829 4.11209 13.9829 4.44015C13.9829 4.76719 14.1164 5.08834 14.3483 5.32025C14.5791 5.55102 14.9003 5.6845 15.2273 5.6845C15.5553 5.6845 15.8755 5.55102 16.1074 5.32025C16.3393 5.08834 16.4716 4.76708 16.4716 4.44015C16.4716 4.11209 16.3393 3.79083 16.1074 3.56006C15.8766 3.32815 15.5553 3.1958 15.2273 3.1958Z"/>
    </symbol>

    <symbol id="fb" viewBox="0 0 10 19">
        <path d="M9.52254 0.00378555L7.1632 0C4.51256 0 2.7996 1.75744 2.7996 4.47755V6.542H0.427381C0.222393 6.542 0.0563965 6.70819 0.0563965 6.91317V9.90433C0.0563965 10.1093 0.222582 10.2753 0.427381 10.2753H2.7996V17.8229C2.7996 18.0279 2.96559 18.1939 3.17058 18.1939H6.26565C6.47063 18.1939 6.63663 18.0277 6.63663 17.8229V10.2753H9.4103C9.61529 10.2753 9.78129 10.1093 9.78129 9.90433L9.78242 6.91317C9.78242 6.81475 9.74324 6.72049 9.67378 6.65083C9.60431 6.58118 9.50967 6.542 9.41125 6.542H6.63663V4.79194C6.63663 3.95079 6.83708 3.52378 7.9328 3.52378L9.52217 3.52321C9.72696 3.52321 9.89296 3.35703 9.89296 3.15223V0.37477C9.89296 0.170161 9.72715 0.00416411 9.52254 0.00378555Z"/>
    </symbol>

    <symbol id="ok" viewBox="0 0 11 19">
        <path d="M4.64205 12.8153C3.23162 12.6682 1.9599 12.3208 0.871117 11.4692C0.736019 11.3633 0.596539 11.2612 0.473255 11.1428C-0.003304 10.6851 -0.051322 10.1609 0.325771 9.62073C0.648368 9.15846 1.1899 9.0348 1.75278 9.30023C1.86177 9.35168 1.96562 9.41589 2.06509 9.48487C4.09422 10.8791 6.88174 10.9176 8.9185 9.54756C9.12029 9.39284 9.33599 9.26669 9.58599 9.20229C10.0721 9.07748 10.5254 9.25602 10.7862 9.68132C11.0843 10.167 11.0805 10.6411 10.7133 11.0182C10.15 11.5963 9.47261 12.0146 8.71995 12.3065C8.00826 12.5824 7.22873 12.7213 6.4572 12.8135C6.57363 12.9403 6.6285 13.0026 6.70129 13.0757C7.74892 14.1283 8.80112 15.1765 9.84532 16.2323C10.2011 16.5921 10.2754 17.0382 10.0795 17.4566C9.86533 17.9139 9.38591 18.2148 8.91583 18.1826C8.61801 18.162 8.38573 18.0138 8.17937 17.8059C7.38879 17.0103 6.58334 16.2295 5.80877 15.4189C5.58335 15.1832 5.47493 15.2278 5.276 15.4324C4.48065 16.2512 3.67235 17.0574 2.85929 17.859C2.4942 18.219 2.05975 18.2838 1.63636 18.0782C1.18628 17.86 0.89989 17.4006 0.921993 16.9389C0.937237 16.6266 1.09082 16.388 1.30518 16.174C2.34195 15.1388 3.37586 14.1009 4.41015 13.0639C4.47856 12.9949 4.54239 12.9218 4.64205 12.8153Z"/>
        <path d="M5.50111 9.20898C2.98493 9.2004 0.921685 7.11448 0.936357 4.5943C0.950839 2.04631 3.01542 -0.00703215 5.55637 1.81013e-05C8.10246 0.0068778 10.1461 2.08975 10.1333 4.66423C10.1204 7.17927 8.04282 9.21774 5.50111 9.20898ZM7.78786 4.6004C7.78348 3.34908 6.78692 2.3529 5.53807 2.35175C4.27875 2.35042 3.27323 3.3647 3.28295 4.62746C3.29228 5.87402 4.29742 6.86315 5.5497 6.85858C6.79816 6.85419 7.79206 5.85153 7.78786 4.6004Z"/>
    </symbol>

    <symbol id="size" viewBox="0 0 44 54">
        <path d="M18.8254 0.00137105H1.7114C0.766171 0.00137105 0 0.756805 0 1.68879V52.3112C0 53.2432 0.766171 53.9986 1.7114 53.9986H18.8254C19.7706 53.9986 20.5368 53.2432 20.5368 52.3112V1.68879C20.5368 0.756805 19.7705 0.00137105 18.8254 0.00137105ZM17.114 50.6238H3.42279V45.5616H11.9798V42.1867H3.42279V37.1245H8.55698V33.7497H3.42279V28.6874H11.9798V25.3126H3.42279V20.2503H8.55698V16.8755H3.42279V11.8133H11.9798V8.43844H3.42279V3.3762H17.114V50.6238Z"/>
        <path d="M41.5869 42.693L35.9393 48.2445V5.75545L41.5698 11.307L43.9829 8.92779L35.4259 0.490721C34.7584 -0.163574 33.6804 -0.163574 33.0128 0.490721L24.4559 8.92779L26.8689 11.307L32.5165 5.75545V48.2445L26.886 42.693L24.473 45.0722L33.0299 53.5093C33.6975 54.1636 34.7755 54.1636 35.443 53.5093L44 45.0722L41.5869 42.693Z"/>
    </symbol>

    <symbol id="location" viewBox="0 0 13 18">
        <path fill-rule="evenodd" clip-rule="evenodd"
              d="M6.0835 17.5205C6.0835 17.5205 12.167 9.44332 12.167 6.0835C12.167 2.72367 9.44332 0 6.0835 0C2.72367 0 0 2.72367 0 6.0835C0 9.44332 6.0835 17.5205 6.0835 17.5205ZM6.08348 8.76059C7.5618 8.76059 8.76022 7.56217 8.76022 6.08385C8.76022 4.60553 7.5618 3.40711 6.08348 3.40711C4.60516 3.40711 3.40674 4.60553 3.40674 6.08385C3.40674 7.56217 4.60516 8.76059 6.08348 8.76059Z"/>
    </symbol>


    <symbol id="star" viewBox="0 0 15 14">
        <path d="M14.9609 5.29043C14.8627 4.99462 14.5933 4.78452 14.2745 4.75654L9.94515 4.37368L8.23319 0.47114C8.10695 0.185135 7.81947 0 7.50006 0C7.18065 0 6.89317 0.185134 6.76693 0.471809L5.05497 4.37368L0.724884 4.75654C0.406731 4.78519 0.138017 4.99462 0.0392523 5.29043C-0.0595126 5.58625 0.031699 5.91071 0.272374 6.11523L3.54489 8.91042L2.5799 13.0504C2.50929 13.3548 2.6306 13.6694 2.88993 13.852C3.02932 13.9501 3.1924 14 3.35686 14C3.49865 14 3.63931 13.9628 3.76554 13.8892L7.50006 11.7154L11.2332 13.8892C11.5064 14.0493 11.8507 14.0347 12.1095 13.852C12.3689 13.6689 12.4901 13.3541 12.4195 13.0504L11.4545 8.91042L14.7271 6.11579C14.9677 5.91071 15.0596 5.5868 14.9609 5.29043Z"/>
    </symbol>

    <symbol id="check" viewBox="0 0 34 34">
        <path fill-rule="evenodd" clip-rule="evenodd"
              d="M17 31.2538C24.8722 31.2538 31.2538 24.8722 31.2538 17C31.2538 9.12782 24.8722 2.74615 17 2.74615C9.12782 2.74615 2.74615 9.12782 2.74615 17C2.74615 24.8722 9.12782 31.2538 17 31.2538ZM17 34C26.3888 34 34 26.3888 34 17C34 7.61116 26.3888 0 17 0C7.61116 0 0 7.61116 0 17C0 26.3888 7.61116 34 17 34Z"/>
        <path fill-rule="evenodd" clip-rule="evenodd"
              d="M25.8825 10.2752C26.4187 10.8115 26.4187 11.6808 25.8825 12.2171L14.8978 23.2017C14.3708 23.7287 13.5197 23.7391 12.98 23.2251L7.48767 17.9943C6.93853 17.4713 6.91734 16.6022 7.44032 16.0531C7.96331 15.5039 8.83243 15.4827 9.38157 16.0057L13.9035 20.3123L23.9406 10.2752C24.4768 9.73902 25.3462 9.73902 25.8825 10.2752Z"/>
    </symbol>

    <symbol id="window1" viewBox="0 0 44 72">
        <path d="M0 0V72H44V0H0ZM42.2162 70.2H1.78378V1.8H42.2162V70.2Z"/>
        <path d="M39.5405 4.5H4.45946V67.5H39.5405V4.5ZM37.7568 65.7H6.24324V6.3H37.7568V65.7Z"/>
    </symbol>

    <symbol id="window2" viewBox="0 0 77 64">
        <path d="M35.3962 3.95511H3.93959V59.9851H35.3962V3.95511ZM33.6055 58.2473H5.73029V5.75287H33.6055V58.2473Z"/>
        <path d="M0 0V64H77V0H0ZM37.6046 62.2023H1.7907V1.79775H37.6046V62.2023ZM75.2093 62.2023H39.3953V1.79775H75.2093V62.2023Z"/>
        <path d="M73.0008 3.95511H41.5442V59.9851H73.0008V3.95511ZM71.2101 58.2473H43.3349V5.75287H71.2101V58.2473Z"/>
    </symbol>

    <symbol id="window3" viewBox="0 0 76 42">
        <path d="M23.5125 2.59545H2.67188V39.3455H23.5125V2.59545ZM22.325 38.2247H3.85938V3.77522H22.325V38.2247Z"/>
        <path d="M48.45 2.59545H27.6094V39.3455H48.45V2.59545ZM47.2625 38.2247H28.7969V3.77522H47.2625V38.2247Z"/>
        <path d="M0 0V42H76V0H0ZM24.9375 40.8202H1.1875V1.17978H24.9375V40.8202ZM49.875 40.8202H26.125V1.17978H49.875V40.8202ZM74.8125 40.8202H51.0625V1.17978H74.8125V40.8202Z"/>
        <path d="M73.3875 2.59545H52.5469V39.3455H73.3875V2.59545ZM72.2 38.2247H53.7344V3.77522H72.2V38.2247Z"/>
    </symbol>

    <symbol id="window4" viewBox="0 0 38 77">
        <path d="M33.5469 3.9992H4.45312V50.438H33.5469V3.9992ZM31.7656 48.6473H6.23438V5.78989H31.7656V48.6473Z"/>
        <path d="M0 0V77H38V0H0ZM36.2187 75.2093H1.78125V1.7907H36.2187V75.2093Z"/>
    </symbol>

    <symbol id="window5" viewBox="0 0 75 77">
        <path d="M75 0H0V77H32.4V50.1395H75V0ZM30.6 75.2093H1.8V1.7907H30.6V75.2093ZM73.2 48.3488H32.4V1.7907H73.2V48.3488Z"/>
        <path d="M70.5 4.47674H35.1V45.6628H70.5V4.47674ZM68.7 43.8721H36.9V6.26744H68.7V43.8721Z"/>
        <path d="M4.5 50.438H27.9V3.9992H4.5V50.438ZM6.3 5.78989H26.1V48.6473H6.3V5.78989Z"/>
    </symbol>

    <symbol id="window6" viewBox="0 0 78 77">
        <path d="M50.5227 4.47674H34.5682V45.6628H50.5227V4.47674ZM48.75 43.8721H36.3409V6.26744H48.75V43.8721Z"/>
        <path d="M0 0V77H31.9091V50.1395H78V0H0ZM30.1364 75.2093H1.77273V1.7907H30.1364V75.2093ZM53.1818 48.3488H31.9091V1.7907H53.1818V48.3488ZM76.2273 48.3488H54.9545V1.7907H76.2273V48.3488Z"/>
        <path d="M73.5682 4.47674H57.6136V45.6628H73.5682V4.47674ZM71.7955 43.8721H59.3864V6.26744H71.7955V43.8721Z"/>
        <path d="M4.43182 50.438H27.4773V3.9992H4.43182V50.438ZM6.20455 5.78989H25.7045V48.6473H6.20455V5.78989Z"/>
    </symbol>

    <symbol id="money" viewBox="0 0 28 28">
        <path d="M13.8696 18.2597C13.0856 18.2597 12.4477 18.8975 12.4477 19.6815C12.4477 20.4655 13.0856 21.1033 13.8696 21.1033C14.6536 21.1033 15.2915 20.4655 15.2915 19.6815C15.2915 18.8975 14.6537 18.2597 13.8696 18.2597ZM13.8696 20.0096C13.6886 20.0096 13.5415 19.8624 13.5415 19.6815C13.5415 19.5005 13.6886 19.3534 13.8696 19.3534C14.0506 19.3534 14.1977 19.5005 14.1977 19.6815C14.1977 19.8624 14.0506 20.0096 13.8696 20.0096Z"/>
        <path d="M18.2592 16.4473C18.1574 16.3455 18.0163 16.287 17.8725 16.287C17.7287 16.287 17.5876 16.3455 17.4858 16.4473C17.3836 16.5489 17.3256 16.69 17.3256 16.8338C17.3256 16.9777 17.3836 17.1188 17.4858 17.2205C17.5876 17.3223 17.7287 17.3807 17.8725 17.3807C18.0163 17.3807 18.1574 17.3223 18.2592 17.2205C18.3609 17.1188 18.4194 16.9777 18.4194 16.8338C18.4194 16.69 18.3609 16.5489 18.2592 16.4473Z"/>
        <path d="M25.2657 7.87428H24.6761L16.9619 0.160332C16.7484 -0.0532223 16.402 -0.0532223 16.1885 0.160332L14.2122 2.13658L6.30835 0.0188011C6.01658 -0.0594567 5.71666 0.113739 5.63851 0.405497L3.63732 7.87428H2.29689C1.0304 7.87428 0 8.90459 0 10.1711C0 10.2015 0.00114847 10.2316 0.00229695 10.2617C0.00103909 10.2767 0 10.2918 0 10.3072V25.2657C0 26.7734 1.22668 28 2.73441 28H22.3125C22.321 28 22.3293 27.9995 22.3378 27.9993H25.2656C26.7734 27.9993 28 26.7728 28 25.265V10.6085C28.0001 9.10081 26.7734 7.87428 25.2657 7.87428ZM24.7771 8.96798H25.2657C26.1704 8.96798 26.9063 9.70396 26.9063 10.6085V14.9914C26.9063 15.7061 26.3248 16.2875 25.6101 16.2875H25.0469V14.1084C25.0469 12.6198 23.851 11.4061 22.3694 11.3755L24.7771 8.96798ZM14.7624 3.1332C14.7625 3.13315 14.7625 3.13304 14.7626 3.13298L16.5753 1.32036L23.7268 8.47163L20.8419 11.3564H19.8414L21.15 10.0478C21.3636 9.83423 21.3636 9.48795 21.15 9.27439C20.7073 8.8317 20.7073 8.11146 21.15 7.66877C21.3636 7.45521 21.3636 7.10893 21.15 6.89532L18.1515 3.89702C17.938 3.68347 17.5917 3.68347 17.378 3.89702C16.9353 4.33977 16.215 4.33977 15.7724 3.89702C15.5588 3.68347 15.2125 3.68347 14.999 3.89702L7.53935 11.3565H6.53886L14.7624 3.1332ZM13.153 9.30184C11.9045 9.30184 10.8585 10.1834 10.6034 11.3565H9.08607L15.4336 5.00909C16.1342 5.42669 17.0162 5.42669 17.7168 5.00909L20.0379 7.33008C19.6203 8.03063 19.6203 8.91263 20.0379 9.61318L18.2945 11.3565H15.7025C15.4474 10.1833 14.4015 9.30184 13.153 9.30184ZM14.5632 11.3565H11.743C11.9649 10.7944 12.5132 10.3956 13.1531 10.3956C13.793 10.3956 14.3412 10.7944 14.5632 11.3565ZM5.96085 10.3877L7.40913 4.98273C7.80623 4.98913 8.20125 4.88774 8.55503 4.68337C8.90887 4.47912 9.19358 4.18867 9.38724 3.84069L11.8485 4.50017L5.96085 10.3877ZM6.55352 1.21679L13.3192 3.02957L12.7416 3.60718L9.20704 2.6601C9.06687 2.62253 8.91762 2.64222 8.79206 2.71473C8.66643 2.78725 8.57478 2.90669 8.53726 3.04679C8.45872 3.3397 8.27087 3.58454 8.00825 3.73619C7.74558 3.88783 7.43959 3.92808 7.14662 3.84961C6.85496 3.7714 6.55499 3.94454 6.47684 4.2363L4.56414 11.3742H3.83174L6.55352 1.21679ZM2.29689 8.96798H3.34414L2.69935 11.3742H2.29684C1.6334 11.3742 1.09373 10.8345 1.09373 10.1711C1.09378 9.50769 1.63357 8.96798 2.29689 8.96798ZM26.9063 25.265C26.9063 26.1697 26.1703 26.9056 25.2657 26.9056H24.4991C24.8429 26.4484 25.0469 25.8805 25.0469 25.2657V23.0686H25.3751C25.9463 23.0686 26.4749 22.8846 26.9063 22.5737V25.265ZM26.9063 20.4437C26.9063 21.288 26.2194 21.9749 25.3751 21.9749H13.8907C12.6242 21.9749 11.5938 20.9445 11.5938 19.678C11.5938 18.4115 12.6241 17.3812 13.8907 17.3812H15.5481C15.8501 17.3812 16.095 17.1363 16.095 16.8343C16.095 16.5324 15.8501 16.2875 15.5481 16.2875H13.8907C12.0211 16.2875 10.5001 17.8084 10.5001 19.678C10.5001 21.5475 12.0211 23.0685 13.8907 23.0685H23.9532V25.2656C23.9532 26.1618 23.2308 26.8926 22.3379 26.9062H3.71876V20.7479C3.71876 20.4459 3.47391 20.201 3.17186 20.201C2.86982 20.201 2.62497 20.4459 2.62497 20.7479V26.9022C1.77116 26.8457 1.09373 26.1335 1.09373 25.2657V12.1265C1.4439 12.3427 1.85599 12.4679 2.29684 12.4679H22.3125C23.2172 12.4679 23.9531 13.2039 23.9531 14.1084V16.2875H19.9989C19.6969 16.2875 19.452 16.5324 19.452 16.8344C19.452 17.1364 19.6969 17.3813 19.9989 17.3813H25.6101C26.0877 17.3813 26.5327 17.2399 26.9063 16.9976V20.4437Z"/>
        <path d="M3.55857 18.2283C3.45685 18.1267 3.31575 18.0681 3.17192 18.0681C3.02809 18.0681 2.88699 18.1266 2.78527 18.2283C2.68355 18.33 2.62503 18.4711 2.62503 18.615C2.62503 18.7588 2.68355 18.8999 2.78527 19.0016C2.88699 19.1033 3.02809 19.1618 3.17192 19.1618C3.31575 19.1618 3.45685 19.1033 3.55857 19.0016C3.6603 18.8999 3.71881 18.7588 3.71881 18.615C3.71876 18.4711 3.66024 18.33 3.55857 18.2283Z"/>
    </symbol>

    <symbol id="roulette" viewBox="0 0 34 28">
        <path d="M12.6172 20.4412C17.1027 20.4412 20.752 16.8466 20.752 12.4282C20.752 8.00983 17.1027 4.41524 12.6172 4.41524C8.13165 4.41524 4.48242 8.00983 4.48242 12.4282C4.48242 16.8466 8.13165 20.4412 12.6172 20.4412ZM12.6172 5.72348C16.3704 5.72348 19.4238 8.73119 19.4238 12.4282C19.4238 16.1252 16.3704 19.1329 12.6172 19.1329C8.86397 19.1329 5.81055 16.1252 5.81055 12.4282C5.81055 8.73119 8.86397 5.72348 12.6172 5.72348Z"/>
        <path d="M12.6172 15.4372C14.3015 15.4372 15.6719 14.0873 15.6719 12.4282C15.6719 10.7691 14.3015 9.41926 12.6172 9.41926C10.9329 9.41926 9.5625 10.7691 9.5625 12.4282C9.5625 14.0873 10.9329 15.4372 12.6172 15.4372ZM12.6172 10.7275C13.5693 10.7275 14.3438 11.4905 14.3438 12.4282C14.3438 13.366 13.5693 14.1289 12.6172 14.1289C11.6651 14.1289 10.8906 13.366 10.8906 12.4282C10.8906 11.4905 11.6651 10.7275 12.6172 10.7275Z"/>
        <path d="M30.6797 20.4085H25.2344V12.4282C25.2344 11.1979 25.051 10.0091 24.7114 8.88602V3.32784C24.7114 1.77692 23.4304 0.515119 21.856 0.515119H16.2132C15.073 0.180603 13.8662 0 12.6172 0C5.66 0 0 5.57533 0 12.4283C0 14.6624 0.608812 16.8533 1.7607 18.7644C1.94789 19.075 2.3551 19.1775 2.67073 18.993C2.98602 18.8086 3.08995 18.4072 2.90268 18.0966C1.87259 16.3875 1.32812 14.4274 1.32812 12.4282C1.32812 6.29662 6.3924 1.30817 12.6172 1.30817C18.842 1.30817 23.9062 6.29662 23.9062 12.4282V23.5483H12.6172C10.5877 23.5483 8.59815 23.0121 6.86335 21.9976C6.54799 21.8132 6.14052 21.9156 5.95339 22.2261C5.76619 22.5369 5.87005 22.9382 6.18541 23.1226C8.12527 24.2569 10.3493 24.8565 12.6172 24.8565H29.75V25.8723C29.75 27.0245 30.6497 27.9585 31.7982 27.9986C31.8243 27.9995 31.8503 28 31.8763 28C32.4298 28 32.9507 27.7932 33.3505 27.4131C33.7694 27.015 34 26.48 34 25.9068V23.679C34 21.8757 32.5105 20.4085 30.6797 20.4085ZM19.1897 1.82329H21.856C22.6982 1.82329 23.3833 2.49822 23.3833 3.32777V5.95413C22.3373 4.27252 20.8969 2.85373 19.1897 1.82329ZM32.6719 25.9069C32.6719 26.1218 32.5853 26.3224 32.4282 26.4718C32.2714 26.621 32.0655 26.6996 31.8453 26.6912C31.4223 26.6765 31.0781 26.3091 31.0781 25.8723V24.2024C31.0781 23.8411 30.7808 23.5483 30.4141 23.5483H25.2344V21.7167H30.6797C31.7782 21.7167 32.6719 22.597 32.6719 23.6791V25.9069Z"/>
        <path d="M4.165 20.0997C3.99035 20.0997 3.81902 20.1697 3.69551 20.2913C3.57206 20.413 3.50094 20.5818 3.50094 20.7538C3.50094 20.9258 3.57199 21.0946 3.69551 21.2163C3.81902 21.3379 3.99035 21.4079 4.165 21.4079C4.33965 21.4079 4.51098 21.3379 4.63449 21.2163C4.75794 21.0946 4.82906 20.9258 4.82906 20.7538C4.82906 20.5818 4.75801 20.413 4.63449 20.2913C4.51098 20.1697 4.33965 20.0997 4.165 20.0997Z"/>
    </symbol>

    <symbol id="calculate" viewBox="0 0 25 26">
        <path d="M22.5602 0H8.11645C6.77113 0 5.67663 1.13902 5.67663 2.53906V11.511C2.44582 12.1679 0 15.1358 0 18.6875C0 22.7196 3.15215 26 7.02668 26H22.5602C23.9055 26 25 24.861 25 23.4609V2.53906C25 1.13897 23.9055 0 22.5602 0ZM0.975928 18.6875C0.975928 15.2154 3.69028 12.3906 7.02668 12.3906C10.3631 12.3906 13.0774 15.2154 13.0774 18.6875C13.0774 22.1596 10.3631 24.9844 7.02668 24.9844C3.69028 24.9844 0.975928 22.1596 0.975928 18.6875ZM8.99478 11.2734V10.0547C8.99478 9.77468 9.21369 9.54688 9.48275 9.54688H10.6539C10.9229 9.54688 11.1418 9.77468 11.1418 10.0547V11.2734C11.1418 11.5534 10.9229 11.7812 10.6539 11.7812H9.48275C9.21369 11.7812 8.99478 11.5534 8.99478 11.2734ZM24.0241 23.4609C24.0241 24.301 23.3674 24.9844 22.5602 24.9844H10.5952C11.7421 24.2778 12.6805 23.242 13.2889 22.0025V22.2422C13.2889 23.0822 13.9456 23.7656 14.7528 23.7656H15.9239C16.7311 23.7656 17.3878 23.0822 17.3878 22.2422V21.0234C17.3878 20.1834 16.7311 19.5 15.9239 19.5H14.7528C14.47 19.5 14.2058 19.5841 13.9817 19.7292C14.0286 19.3888 14.0534 19.0411 14.0534 18.6875C14.0534 18.4833 14.0449 18.2812 14.029 18.0812C14.2426 18.2082 14.4896 18.2812 14.7528 18.2812H15.9239C16.7311 18.2812 17.3878 17.5978 17.3878 16.7578V15.5391C17.3878 14.699 16.7311 14.0156 15.9239 14.0156H14.7528C13.9947 14.0156 13.3694 14.6185 13.2961 15.3877C12.7781 14.3261 12.0185 13.4127 11.0928 12.7268C11.6862 12.5323 12.1178 11.9544 12.1178 11.2734V10.0547C12.1178 9.21466 11.4611 8.53125 10.6539 8.53125H9.48275C8.67556 8.53125 8.01886 9.21466 8.01886 10.0547V11.2734C8.01886 11.3331 8.02252 11.3918 8.02896 11.4497C7.70148 11.4008 7.36694 11.375 7.02668 11.375C6.90118 11.375 6.77645 11.3786 6.65256 11.3854V2.53906C6.65256 1.69904 7.30926 1.01562 8.11645 1.01562H22.5602C23.3674 1.01562 24.0241 1.69904 24.0241 2.53906V23.4609ZM14.2648 22.2422V21.0234C14.2648 20.7434 14.4837 20.5156 14.7528 20.5156H15.9239C16.1929 20.5156 16.4118 20.7434 16.4118 21.0234V22.2422C16.4118 22.5222 16.1929 22.75 15.9239 22.75H14.7528C14.4837 22.75 14.2648 22.5222 14.2648 22.2422ZM14.2648 16.7578V15.5391C14.2648 15.2591 14.4837 15.0313 14.7528 15.0313H15.9239C16.1929 15.0313 16.4118 15.2591 16.4118 15.5391V16.7578C16.4118 17.0378 16.1929 17.2656 15.9239 17.2656H14.7528C14.4837 17.2656 14.2648 17.0378 14.2648 16.7578Z"/>
        <path d="M22.1698 2.23437H17.5342C17.2647 2.23437 17.0462 2.46172 17.0462 2.74218C17.0462 3.02265 17.2647 3.24999 17.5342 3.24999H21.6818V6.29687H8.99478V3.24999H13.1425C13.4119 3.24999 13.6304 3.02265 13.6304 2.74218C13.6304 2.46172 13.4119 2.23437 13.1425 2.23437H8.50682C8.23737 2.23437 8.01886 2.46172 8.01886 2.74218V6.80468C8.01886 7.08515 8.23737 7.31249 8.50682 7.31249H22.1698C22.4393 7.31249 22.6578 7.08515 22.6578 6.80468V2.74218C22.6578 2.46172 22.4393 2.23437 22.1698 2.23437Z"/>
        <path d="M15.9239 8.53125H14.7528C13.9456 8.53125 13.2889 9.21466 13.2889 10.0547V11.2734C13.2889 12.1135 13.9456 12.7969 14.7528 12.7969H15.9239C16.7311 12.7969 17.3878 12.1135 17.3878 11.2734V10.0547C17.3878 9.21466 16.7311 8.53125 15.9239 8.53125ZM16.4118 11.2734C16.4118 11.5534 16.1929 11.7812 15.9239 11.7812H14.7528C14.4837 11.7812 14.2648 11.5534 14.2648 11.2734V10.0547C14.2648 9.77467 14.4837 9.54687 14.7528 9.54687H15.9239C16.1929 9.54687 16.4118 9.77467 16.4118 10.0547V11.2734Z"/>
        <path d="M21.1939 8.53125H20.0228C19.2156 8.53125 18.5589 9.21466 18.5589 10.0547V11.2734C18.5589 12.1135 19.2156 12.7969 20.0228 12.7969H21.1939C22.0011 12.7969 22.6578 12.1135 22.6578 11.2734V10.0547C22.6578 9.21466 22.0011 8.53125 21.1939 8.53125ZM21.6818 11.2734C21.6818 11.5534 21.4629 11.7812 21.1939 11.7812H20.0228C19.7537 11.7812 19.5348 11.5534 19.5348 11.2734V10.0547C19.5348 9.77467 19.7537 9.54687 20.0228 9.54687H21.1939C21.4629 9.54687 21.6818 9.77467 21.6818 10.0547V11.2734Z"/>
        <path d="M21.1939 14.0156H20.0228C19.2156 14.0156 18.5589 14.699 18.5589 15.5391V22.2422C18.5589 23.0822 19.2156 23.7656 20.0228 23.7656H21.1939C22.0011 23.7656 22.6578 23.0822 22.6578 22.2422V15.5391C22.6578 14.699 22.0011 14.0156 21.1939 14.0156ZM21.6818 22.2422C21.6818 22.5222 21.4629 22.75 21.1939 22.75H20.0228C19.7537 22.75 19.5348 22.5222 19.5348 22.2422V15.5391C19.5348 15.259 19.7537 15.0312 20.0228 15.0312H21.1939C21.4629 15.0312 21.6818 15.259 21.6818 15.5391V22.2422Z"/>
        <path d="M15.3383 3.24999C15.4667 3.24999 15.5925 3.19566 15.6833 3.10121C15.774 3.00675 15.8263 2.87574 15.8263 2.74218C15.8263 2.60863 15.7741 2.47761 15.6833 2.38316C15.5925 2.28871 15.4667 2.23437 15.3383 2.23437C15.21 2.23437 15.0841 2.28871 14.9933 2.38316C14.9026 2.47761 14.8504 2.60863 14.8504 2.74218C14.8504 2.87574 14.9025 3.00675 14.9933 3.10121C15.0841 3.19566 15.21 3.24999 15.3383 3.24999Z"/>
        <path d="M8.61769 15.3454C8.37536 15.223 8.08332 15.3281 7.96562 15.5804L5.28065 21.3342C5.1629 21.5864 5.26401 21.8903 5.50643 22.0128C5.57509 22.0475 5.64769 22.0639 5.71923 22.0639C5.90022 22.0639 6.07413 21.9587 6.15849 21.7778L8.84347 16.0241C8.96126 15.7718 8.86016 15.468 8.61769 15.3454Z"/>
        <path d="M5.7933 15.0602C5.18442 14.4266 4.19361 14.4265 3.58463 15.0602C2.9757 15.6939 2.9757 16.7251 3.58463 17.3588C3.88912 17.6756 4.28906 17.834 4.68894 17.834C5.08888 17.834 5.48886 17.6755 5.7933 17.3588C6.40218 16.7251 6.40218 15.6939 5.7933 15.0602ZM5.10318 16.6406C4.87476 16.8783 4.50313 16.8784 4.27471 16.6406C4.04625 16.4029 4.04625 16.0161 4.27471 15.7784C4.38889 15.6596 4.53889 15.6001 4.68894 15.6001C4.83894 15.6001 4.98894 15.6596 5.10313 15.7784C5.33164 16.0161 5.33164 16.4029 5.10318 16.6406Z"/>
        <path d="M8.34687 20.0162C7.73794 20.6499 7.73794 21.681 8.34687 22.3147C8.65131 22.6315 9.05129 22.79 9.45118 22.79C9.85111 22.79 10.2511 22.6315 10.5555 22.3147C11.1645 21.681 11.1645 20.6499 10.5555 20.0162C9.94651 19.3825 8.95575 19.3826 8.34687 20.0162ZM9.86541 21.5965C9.63699 21.8343 9.26526 21.8342 9.03694 21.5965C8.80848 21.3588 8.80848 20.972 9.03694 20.7343C9.15113 20.6155 9.30113 20.556 9.45118 20.556C9.60118 20.556 9.75118 20.6155 9.86536 20.7343C10.0938 20.972 10.0938 21.3588 9.86541 21.5965Z"/>
    </symbol>

    <symbol id="type1" viewBox="0 0 114 62">
        <path d="M24.6498 8.33424L5.44332 5.12643C5.17779 5.08308 4.91227 5.16978 4.73525 5.29983C4.55823 5.47322 4.42547 5.73331 4.42547 5.9934V38.9385C4.42547 39.3719 4.73525 39.7187 5.17779 39.8054L24.3843 43.0132C24.4286 43.0132 24.4728 43.0132 24.5171 43.0132C24.7384 43.0132 24.9154 42.9265 25.0924 42.7965C25.3137 42.6231 25.4022 42.4064 25.4022 42.1463V9.20121C25.4022 8.76772 25.0924 8.37759 24.6498 8.33424ZM23.632 41.1059L6.19565 38.2015V7.03377L23.632 9.93814V41.1059Z"/>
        <path d="M52.7073 12.9726L33.5008 9.76475C33.2352 9.7214 32.9697 9.8081 32.7927 9.93814C32.5714 10.1115 32.4829 10.3283 32.4829 10.5884V43.5334C32.4829 43.9669 32.7927 44.3137 33.2352 44.4004L52.4418 47.6082C52.486 47.6082 52.5303 47.6082 52.5745 47.6082C52.7958 47.6082 52.9728 47.5215 53.1498 47.3915C53.3711 47.2181 53.4596 47.0013 53.4596 46.7412V13.7962C53.4596 13.406 53.1498 13.0593 52.7073 12.9726ZM51.6894 45.7442L34.2531 42.8398V11.6287L51.6894 14.5331V45.7442Z"/>
        <path d="M80.7647 17.6542L61.5582 14.4464C61.2927 14.4031 61.0272 14.4898 60.8502 14.6198C60.6289 14.7932 60.5404 15.0099 60.5404 15.27V48.2151C60.5404 48.6486 60.8502 48.9954 61.2927 49.0821L80.4992 52.2899C80.5435 52.2899 80.5877 52.2899 80.632 52.2899C80.8533 52.2899 81.0303 52.2032 81.2073 52.0731C81.4286 51.8997 81.5171 51.683 81.5171 51.4229V18.4778C81.5171 18.0877 81.2073 17.6976 80.7647 17.6542ZM79.7469 50.4259L62.3106 47.5215V16.3104L79.7469 19.2148V50.4259Z"/>
        <path d="M113.248 18.6512L85.1902 13.9696L57.1328 9.33126L29.0753 4.64959L1.01786 0.0112763C0.752329 -0.0320724 0.486801 0.0546249 0.309783 0.184671C0.132764 0.358066 0 0.618159 0 0.834903V42.5798C0 43.0132 0.309783 43.36 0.752329 43.4467L112.982 62C113.026 62 113.071 62 113.115 62C113.336 62 113.513 61.9133 113.69 61.7833C113.911 61.6099 114 61.3931 114 61.133V19.4749C114 19.0414 113.69 18.6946 113.248 18.6512ZM1.77019 1.87527L28.0575 6.2535V46.2211L1.77019 41.8428V1.87527ZM29.8276 6.55694L56.1149 10.9352V50.9027L29.8276 46.5245V6.55694ZM57.8851 11.1953L84.1724 15.5735V55.541L57.8851 51.1628V11.1953ZM112.23 60.2227L85.9425 55.8445V15.8336L112.23 20.2118V60.2227Z"/>
        <path d="M89.3502 53.7637L108.557 56.9715C108.601 56.9715 108.645 56.9715 108.689 56.9715C108.911 56.9715 109.088 56.8848 109.265 56.7548C109.486 56.5814 109.575 56.3647 109.575 56.1046V23.1595C109.575 22.726 109.265 22.3792 108.822 22.2925L89.6157 19.0847C89.3502 19.0414 89.0846 19.1281 88.9076 19.2581C88.6863 19.4315 88.5978 19.6483 88.5978 19.9084V52.8534C88.5978 53.3302 88.9076 53.677 89.3502 53.7637ZM90.368 20.9921L107.804 23.8964V55.1075L90.368 52.2032V20.9921Z"/>
    </symbol>

    <symbol id="type2" viewBox="0 0 112 57">
        <path d="M24.2174 8.23861L5.34782 5.05103C5.08695 5.00795 4.82608 5.09411 4.65217 5.22333C4.43477 5.39563 4.34783 5.61101 4.34783 5.86946V38.6068C4.34783 39.0375 4.65217 39.3821 5.08695 39.4683L23.9565 42.6559C24 42.6559 24.0435 42.6559 24.087 42.6559C24.3043 42.6559 24.4783 42.5697 24.6522 42.4405C24.8696 42.2682 24.9565 42.0528 24.9565 41.7944V9.05704C24.913 8.66937 24.6087 8.32476 24.2174 8.23861ZM23.1739 40.8036L6.04348 37.9176V6.90327L23.1739 9.78933V40.8036Z"/>
        <path d="M51.7826 12.8908L32.913 9.70318C32.6522 9.6601 32.3913 9.74625 32.2174 9.87548C32 10.0478 31.913 10.2632 31.913 10.5216V43.2589C31.913 43.6897 32.2174 44.0343 32.6522 44.1205L51.5217 47.308C51.5652 47.308 51.6087 47.308 51.6522 47.308C51.8696 47.308 52.0435 47.2219 52.2174 47.0927C52.4348 46.9204 52.5217 46.705 52.5217 46.4465V13.7092C52.4783 13.3215 52.1739 12.9338 51.7826 12.8908ZM50.7391 45.4558L33.6087 42.5697V11.5554L50.7391 14.4415V45.4558Z"/>
        <path d="M79.3478 17.4998L60.4783 14.3122C60.2174 14.2692 59.9565 14.3553 59.7826 14.4845C59.5652 14.6569 59.4783 14.8722 59.4783 15.1307V47.868C59.4783 48.2988 59.7826 48.6434 60.2174 48.7295L79.087 51.9171C79.1304 51.9171 79.1739 51.9171 79.2174 51.9171C79.4348 51.9171 79.6087 51.831 79.7826 51.7017C80 51.5294 80.0869 51.314 80.0869 51.0556V18.3183C80.0435 17.9306 79.7391 17.586 79.3478 17.4998ZM78.3043 50.0649L61.1739 47.1788V16.1645L78.3043 19.0505V50.0649Z"/>
        <path d="M111.652 9.44473C111.435 9.27242 111.217 9.22935 110.957 9.27242L83.5217 13.8815L56.1304 9.22935L0.999995 0.0112052C0.739125 -0.0318702 0.478253 0.0542805 0.30434 0.183507C0.0869486 0.355809 0 0.571186 0 0.829638V42.3113C0 42.742 0.30434 43.0866 0.739122 43.1728L83.4348 57C83.4783 57 83.5217 57 83.5652 57C83.6087 57 83.6522 57 83.6956 57L111.261 52.3909C111.696 52.3048 112 51.9602 112 51.5294V10.0909C111.957 9.8324 111.87 9.57395 111.652 9.44473ZM1.69565 1.86345L27.5217 6.21407V45.9296L1.69565 41.579V1.86345ZM29.2609 6.47252L55.0869 10.8231V50.5387L29.2609 46.1881V6.47252ZM56.8261 11.0816L82.6522 15.4322V55.1478L56.8261 50.7971V11.0816ZM110.217 50.8402L84.3913 55.1908V15.4322L110.217 11.0816V50.8402Z"/>
        <path d="M87.8696 51.9602C87.913 51.9602 87.9565 51.9602 88 51.9602L106.87 48.7726C107.304 48.6864 107.609 48.3418 107.609 47.9111V15.1738C107.609 14.9153 107.478 14.6999 107.304 14.5276C107.087 14.3553 106.87 14.3123 106.609 14.3553L87.7391 17.5429C87.3044 17.6291 87 17.9737 87 18.4044V51.1417C87 51.4002 87.1304 51.6156 87.3044 51.7879C87.4783 51.874 87.6522 51.9602 87.8696 51.9602ZM88.7391 19.0936L105.87 16.2076V47.2219L88.7391 50.1079V19.0936Z"/>
    </symbol>

    <symbol id="type3" viewBox="0 0 113 64">
        <path d="M24.4336 13.3946L5.3956 10.0835C5.1324 10.0388 4.86918 10.1283 4.69372 10.2625C4.51825 10.4415 4.38665 10.6652 4.38665 10.9337V44.9391C4.38665 45.3865 4.69372 45.7445 5.13238 45.834L24.1704 49.145C24.2143 49.145 24.2582 49.145 24.302 49.145C24.5214 49.145 24.6968 49.0555 24.8723 48.9213C25.0478 48.7423 25.1794 48.5186 25.1794 48.2501V14.2447C25.1355 13.842 24.8284 13.4393 24.4336 13.3946ZM23.3808 47.221L6.09745 44.2232V12.0523L23.3808 15.0501V47.221Z"/>
        <path d="M52.245 18.1822L33.2069 14.8711C32.9437 14.8264 32.6805 14.9159 32.5051 15.0501C32.3296 15.2291 32.198 15.4528 32.198 15.7213V49.7267C32.198 50.1741 32.5051 50.5321 32.9437 50.6216L51.9817 53.9326C52.0256 53.9326 52.0695 53.9326 52.1134 53.9326C52.3327 53.9326 52.5082 53.8431 52.6836 53.7089C52.8591 53.5299 52.9907 53.3062 52.9907 53.0377V19.0323C52.9468 18.6296 52.6398 18.2717 52.245 18.1822ZM51.1922 52.0086L33.9088 49.0108V16.7951L51.1922 19.793V52.0086Z"/>
        <path d="M80.0563 23.0145L61.0183 19.7035C60.7551 19.6587 60.4918 19.7482 60.3164 19.8825C60.1409 20.0614 60.0093 20.2852 60.0093 20.5536V54.559C60.0093 55.0065 60.3164 55.3644 60.755 55.4539L79.7931 58.765C79.837 58.765 79.8808 58.765 79.9247 58.765C80.144 58.765 80.3195 58.6755 80.4949 58.5412C80.6704 58.3623 80.802 58.1385 80.802 57.8701V23.8647C80.7581 23.462 80.4511 23.0593 80.0563 23.0145ZM79.0035 56.841L61.7201 53.8431V21.6275L79.0035 24.6253V56.841Z"/>
        <path d="M112.649 14.6027C112.43 14.4237 112.21 14.3789 111.947 14.4237L84.2675 19.2113L29.5221 9.72558V0.866273C29.5221 0.59781 29.3905 0.37409 29.2151 0.195114C28.9957 0.0161382 28.7764 -0.0286057 28.5132 0.0161382L0.701879 4.80374H0.657997C0.61413 4.80374 0.614152 4.80374 0.570285 4.84849C0.526419 4.84849 0.526414 4.89323 0.482547 4.89323C0.438681 4.89323 0.438675 4.93797 0.394809 4.93797C0.350942 4.93797 0.350937 4.98272 0.307071 4.98272C0.307071 4.98272 0.263215 4.98272 0.263215 5.02746C0.219348 5.07221 0.219343 5.07221 0.175477 5.11695L0.131621 5.16169C0.0877543 5.20644 0.087749 5.25118 0.0438825 5.29593C0.0438825 5.29593 0.0438825 5.29593 0.0438825 5.34067C1.60637e-05 5.38541 0 5.4749 0 5.51964V5.56439C0 5.60913 0 5.65388 0 5.69862V48.7423C0 49.1897 0.307071 49.5477 0.745735 49.6372L84.1797 64C84.2236 64 84.2675 64 84.3113 64C84.3552 64 84.3991 64 84.4429 64L112.254 59.2124C112.693 59.1229 113 58.7649 113 58.3175V15.2738C112.956 15.0054 112.868 14.7816 112.649 14.6027ZM27.7675 9.41237L6.09745 5.65388L27.7675 1.89538V9.41237ZM1.7108 6.72773L27.7675 11.2469V52.5008L1.7108 47.9817V6.72773ZM29.5221 11.5601L55.5788 16.0792V57.3331L29.5221 52.814V11.5601ZM57.3335 16.3477L83.3901 20.8668V62.1207L57.3335 57.6016V16.3477ZM111.201 57.6016L85.1448 62.1207V20.8668L111.201 16.3477V57.6016Z"/>
        <path d="M88.6541 58.7649C88.698 58.7649 88.7418 58.7649 88.7857 58.7649L107.824 55.4539C108.262 55.3644 108.569 55.0065 108.569 54.559V20.5536C108.569 20.2852 108.438 20.0614 108.262 19.8825C108.043 19.7035 107.824 19.6587 107.561 19.7035L88.5225 23.0145C88.0839 23.104 87.7768 23.462 87.7768 23.9094V57.9148C87.7768 58.1833 87.9084 58.407 88.0839 58.586C88.2593 58.7202 88.4348 58.7649 88.6541 58.7649ZM89.5314 24.6253L106.815 21.6275V53.8431L89.5314 56.841V24.6253Z"/>
    </symbol>

    <symbol id="type4" viewBox="0 0 114 53">
        <path d="M24.6499 8.33808L5.44335 5.11371C5.17782 5.07014 4.9123 5.15728 4.73528 5.288C4.55826 5.46229 4.42547 5.68016 4.42547 5.94159V39.0568C4.42547 39.4925 4.73528 39.8411 5.17783 39.9282L24.3843 43.1526C24.4286 43.1526 24.4728 43.1526 24.5171 43.1526C24.7384 43.1526 24.9154 43.0655 25.0924 42.9347C25.2694 42.7604 25.4022 42.5426 25.4022 42.2811V9.16596C25.4022 8.77381 25.0924 8.42523 24.6499 8.33808ZM23.632 41.279L6.19565 38.3596V6.98733L23.632 9.9067V41.279Z"/>
        <path d="M52.7073 13.0439L33.5008 9.81955C33.2353 9.77598 32.9697 9.86312 32.7927 9.99384C32.6157 10.1681 32.4829 10.386 32.4829 10.6474V43.7626C32.4829 44.1983 32.7927 44.5469 33.2352 44.6341L52.4418 47.8584C52.486 47.8584 52.5303 47.8584 52.5746 47.8584C52.7958 47.8584 52.9728 47.7713 53.1498 47.6406C53.3269 47.4663 53.4597 47.2484 53.4597 46.987V13.8718C53.4597 13.4797 53.1498 13.0875 52.7073 13.0439ZM51.6895 45.9848L34.2531 43.0654V11.6932L51.6895 14.6125V45.9848Z"/>
        <path d="M80.4992 9.81955L61.2927 13.0439C60.8502 13.1311 60.5404 13.4797 60.5404 13.9154V47.0306C60.5404 47.292 60.6731 47.5099 60.8502 47.6841C61.0272 47.8149 61.2042 47.902 61.4255 47.902C61.4697 47.902 61.514 47.902 61.5582 47.902L80.7648 44.6776C81.2073 44.5905 81.5171 44.2419 81.5171 43.8062V10.691C81.5171 10.4296 81.3843 10.2117 81.2073 10.0374C80.986 9.86312 80.7205 9.77598 80.4992 9.81955ZM79.7469 43.0655L62.3106 45.9848V14.6125L79.7469 11.6932V43.0655Z"/>
        <path d="M113.69 0.190007C113.469 0.0157163 113.248 -0.0278569 112.982 0.0157157L57 9.34025L1.01788 0.0157157C0.752351 -0.0278569 0.486834 0.0592889 0.309815 0.190007C0.132796 0.364297 0 0.58216 0 0.843596V42.804C0 43.2397 0.309815 43.5883 0.752362 43.6755L56.8672 53C56.9115 53 56.9558 53 57 53C57.0443 53 57.0885 53 57.1328 53L113.248 43.6755C113.69 43.5883 114 43.2397 114 42.804V0.843596C114 0.58216 113.867 0.364297 113.69 0.190007ZM1.77019 1.88934L28.0575 6.29017V46.4641L1.77019 42.0633V1.88934ZM29.8277 6.55161L56.1149 10.9524V51.1264L29.8277 46.7255V6.55161ZM57.8851 10.9524L84.1724 6.55161V46.7255L57.8851 51.1264V10.9524ZM112.23 42.0633L85.9426 46.4641V6.2466L112.23 1.84577V42.0633Z"/>
        <path d="M89.483 43.1962C89.5272 43.1962 89.5714 43.1962 89.6157 43.1962L108.822 39.9718C109.265 39.8847 109.575 39.5361 109.575 39.1003V5.98516C109.575 5.72373 109.442 5.50586 109.265 5.33157C109.044 5.15728 108.822 5.11371 108.557 5.15728L89.3502 8.38166C88.9076 8.4688 88.5979 8.81738 88.5979 9.25311V42.3683C88.5979 42.6297 88.7306 42.8476 88.9076 43.0219C89.0846 43.1526 89.2617 43.1962 89.483 43.1962ZM90.3681 9.95027L107.804 7.03091V38.4032L90.3681 41.3225V9.95027Z"/>
    </symbol>

    <symbol id="type5" viewBox="0 0 85 53">
        <path d="M52.173 13.0627L33.1771 9.84337C32.9145 9.79987 32.6519 9.88688 32.4768 10.0174C32.3017 10.1914 32.1705 10.4089 32.1705 10.67V43.7335C32.1705 44.1686 32.4768 44.5166 32.9145 44.6036L51.9104 47.8229C51.9542 47.8229 51.9979 47.8229 52.0417 47.8229C52.2605 47.8229 52.4356 47.7359 52.6107 47.6054C52.7858 47.4314 52.9171 47.2139 52.9171 46.9529V13.8893C52.8733 13.4978 52.5669 13.1062 52.173 13.0627ZM51.1225 45.9522L33.8774 43.0374V11.7141L51.1225 14.6289V45.9522Z"/>
        <path d="M85 5.53641C85 5.49291 85 5.4494 85 5.40589V5.36239C85 5.31889 84.9562 5.23188 84.9562 5.18837C84.9562 5.18837 84.9562 5.18837 84.9562 5.14487C84.9562 5.10136 84.9124 5.05786 84.8687 5.01435L84.8249 4.97085C84.7811 4.92734 84.7812 4.92734 84.7374 4.88384C84.7374 4.88384 84.6936 4.88384 84.6936 4.84033C84.6499 4.79683 84.6498 4.79683 84.6061 4.79683C84.5623 4.79683 84.5623 4.75332 84.5185 4.75332C84.4748 4.75332 84.4747 4.70982 84.431 4.70982C84.3872 4.70982 84.3872 4.70982 84.3435 4.66632H84.2997L56.5499 0.0113169C56.2873 -0.0321878 56.0247 0.0548214 55.8496 0.185335C55.6746 0.359354 55.5432 0.576877 55.5432 0.837905V9.1473L28.8002 4.66632H28.7564C28.7127 4.66632 28.7127 4.66632 28.6689 4.66632C28.6251 4.66632 28.5813 4.66632 28.5813 4.66632H28.5376L0.744057 9.36482C0.306364 9.45183 0 9.79987 0 10.2349V52.1299C0 52.3909 0.131287 52.6085 0.306364 52.7825C0.481441 52.913 0.65654 53 0.875386 53C0.919156 53 0.962893 53 1.00666 53L28.6251 48.345L56.1998 53C56.2435 53 56.2873 53 56.3311 53C56.3749 53 56.4187 53 56.4624 53L84.2121 48.345C84.6498 48.258 84.9562 47.91 84.9562 47.4749L85 5.53641ZM78.9161 5.57991L57.294 9.23431V1.92552L78.9161 5.57991ZM1.75077 10.9745L27.7497 6.58052V46.6918L1.75077 51.0858V10.9745ZM29.5005 6.58052L55.4995 10.9745V51.0858L29.5005 46.6918V6.58052ZM83.2492 46.7353L57.2502 51.1293V10.9745L83.2492 6.58052V46.7353Z"/>
        <path d="M60.7518 47.8664C60.7956 47.8664 60.8393 47.8664 60.8831 47.8664L79.879 44.6471C80.3167 44.5601 80.6231 44.2121 80.6231 43.777V10.7135C80.6231 10.4524 80.4918 10.2349 80.3167 10.0609C80.0979 9.88688 79.879 9.84337 79.6163 9.88688L60.6205 13.1062C60.1828 13.1932 59.8764 13.5413 59.8764 13.9763V47.0399C59.8764 47.3009 60.0077 47.5184 60.1828 47.6924C60.3579 47.7794 60.5767 47.8664 60.7518 47.8664ZM61.6272 14.6289L78.8723 11.7141V43.0374L61.6272 45.9522V14.6289Z"/>
        <path d="M24.1169 9.84337L5.12099 13.0627C4.6833 13.1497 4.37693 13.4978 4.37693 13.9328V46.9964C4.37693 47.2574 4.50822 47.4749 4.6833 47.6489C4.85837 47.7794 5.03347 47.8664 5.25232 47.8664C5.29609 47.8664 5.33983 47.8664 5.38359 47.8664L24.3795 44.6471C24.8172 44.5601 25.1235 44.2121 25.1235 43.777V10.7135C25.1235 10.4524 24.9923 10.2349 24.8172 10.0609C24.6421 9.88688 24.3795 9.79987 24.1169 9.84337ZM23.3728 43.0374L6.12771 45.9522V14.6289L23.3728 11.7141V43.0374Z"/>
    </symbol>

    <symbol id="type6" viewBox="0 0 82 78">
        <path d="M17.1768 40.705C17.3494 40.5284 17.4789 40.3078 17.4789 40.0429V8.13253C17.4789 7.69116 17.1768 7.33808 16.7452 7.2498L5.30839 5.26368C5.04944 5.21954 4.7905 5.30782 4.61787 5.44022C4.44524 5.61677 4.31579 5.83745 4.31579 6.10226V38.0127C4.31579 38.454 4.61787 38.8071 5.04945 38.8954L16.4863 40.8815C16.5295 40.8815 16.5726 40.8815 16.6158 40.8815C16.8316 40.9257 17.0473 40.8374 17.1768 40.705ZM15.7526 38.9837L6.04211 37.3065V7.16153L15.7526 8.83871V38.9837Z"/>
        <path d="M25.1179 42.3822L36.5547 44.3683C36.5979 44.3683 36.6411 44.3683 36.6842 44.3683C36.9 44.3683 37.0726 44.28 37.2452 44.1476C37.4179 43.9711 37.5474 43.7504 37.5474 43.4856V11.5751C37.5474 11.1338 37.2452 10.7807 36.8137 10.6924L25.3768 8.7063C25.1179 8.66216 24.8589 8.75043 24.6863 8.88284C24.5137 9.05939 24.3842 9.28007 24.3842 9.54488V41.4553C24.3842 41.9408 24.7295 42.338 25.1179 42.3822ZM26.1105 10.6483L35.8211 12.3255V42.4263L26.1105 40.7491V10.6483Z"/>
        <path d="M45.1863 45.8689L56.6231 47.855C56.6663 47.855 56.7095 47.855 56.7526 47.855C56.9684 47.855 57.141 47.7668 57.3137 47.6344C57.4863 47.4578 57.6158 47.2371 57.6158 46.9723V15.0619C57.6158 14.6205 57.3137 14.2674 56.8821 14.1792L45.4452 12.193C45.1863 12.1489 44.9273 12.2372 44.7547 12.3696C44.5821 12.5461 44.4526 12.7668 44.4526 13.0316V44.9421C44.4526 45.4275 44.7547 45.7806 45.1863 45.8689ZM46.1789 14.135L55.8895 15.8122V45.913L46.1789 44.2359V14.135Z"/>
        <path d="M16.7884 48.1198L5.35159 46.1337C5.09264 46.0896 4.83365 46.1779 4.66102 46.3103C4.48839 46.4868 4.35894 46.7075 4.35894 46.9723V59.4628C4.35894 59.9042 4.66102 60.2573 5.0926 60.3456L16.5294 62.3317C16.5726 62.3317 16.6158 62.3317 16.6589 62.3317C16.8747 62.3317 17.0474 62.2434 17.22 62.111C17.3926 61.9345 17.5221 61.7138 17.5221 61.449V48.9584C17.4789 48.5612 17.1769 48.164 16.7884 48.1198ZM15.7526 60.4338L6.04211 58.7566V48.0316L15.7526 49.7087V60.4338Z"/>
        <path d="M36.8568 51.5625L25.42 49.5763C25.1611 49.5322 24.9021 49.6205 24.7294 49.7529C24.5568 49.9294 24.4274 50.1501 24.4274 50.4149V62.9054C24.4274 63.3468 24.7294 63.6999 25.161 63.7882L36.5979 65.7743C36.641 65.7743 36.6842 65.7743 36.7274 65.7743C36.9431 65.7743 37.1158 65.686 37.2884 65.5536C37.4611 65.3771 37.5905 65.1564 37.5905 64.8916V52.4011C37.5474 52.0038 37.2453 51.6507 36.8568 51.5625ZM35.8211 63.9206L26.1105 62.2434V51.5183L35.8211 53.1955V63.9206Z"/>
        <path d="M56.8821 55.0492L45.4452 53.0631C45.1863 53.019 44.9273 53.1072 44.7547 53.2396C44.5821 53.4162 44.4526 53.6369 44.4526 53.9017V66.3922C44.4526 66.8336 44.7547 67.1866 45.1863 67.2749L56.6231 69.261C56.6663 69.261 56.7095 69.261 56.7526 69.261C56.9684 69.261 57.141 69.1728 57.3137 69.0404C57.4863 68.8638 57.6158 68.6431 57.6158 68.3783V55.8878C57.6158 55.4906 57.3137 55.1375 56.8821 55.0492ZM55.8895 67.3632L46.1789 65.686V54.9609L55.8895 56.6381V67.3632Z"/>
        <path d="M81.2663 13.9585L0.9926 0.0114811C0.733653 -0.032655 0.474716 0.0556173 0.302084 0.188026C0.129453 0.36457 0 0.585251 0 0.850067V63.1703C0 63.6116 0.302084 63.9647 0.733663 64.053L81.0073 78C81.0505 78 81.0937 78 81.1368 78C81.3526 78 81.5252 77.9117 81.6979 77.7793C81.8705 77.6028 82 77.3821 82 77.1173V14.7971C82 14.3999 81.6979 14.0026 81.2663 13.9585ZM80.2737 54.652L74.1884 53.5927L61.9316 51.4742V12.3696L80.2737 15.5474V54.652ZM60.2053 51.1652L54.12 50.106L41.8632 47.9874V8.92698L60.2053 12.1048V51.1652ZM40.1368 47.6785L34.0516 46.6192L21.7947 44.5007V5.44022L40.1368 8.61802V47.6785ZM1.76946 1.95347L20.1116 5.13127V44.1917L17.1337 43.6621L1.81261 41.0139V1.95347H1.76946ZM1.76946 42.8235L4.74737 43.3531L20.0684 46.0013V65.6419L1.72632 62.4641V42.8235H1.76946ZM21.7947 46.3103L27.88 47.3695L40.1368 49.4881V69.1286L21.7947 65.9508V46.3103ZM41.8632 49.7529L47.9484 50.8121L60.2053 52.9307V72.5713L41.8632 69.3935V49.7529ZM80.2737 76.1021L61.9316 72.9243V53.2838L68.0168 54.343L80.2737 56.4616V76.1021Z"/>
        <path d="M65.2547 49.3557L76.6916 51.3418C76.7347 51.3418 76.7779 51.3418 76.8211 51.3418C77.0368 51.3418 77.2094 51.2535 77.3821 51.1211C77.5547 50.9446 77.6842 50.7239 77.6842 50.4591V18.5486C77.6842 18.1073 77.3821 17.7542 76.9505 17.6659L65.5136 15.6798C65.2547 15.6357 64.9958 15.7239 64.8231 15.8563C64.6505 16.0329 64.521 16.2536 64.521 16.5184V48.4288C64.521 48.9143 64.8231 49.2674 65.2547 49.3557ZM66.2474 17.6218L75.9579 19.299V49.3998L66.2474 47.7226V17.6218Z"/>
        <path d="M65.5136 56.5498C65.2547 56.5057 64.9958 56.594 64.8231 56.7264C64.6505 56.9029 64.521 57.1236 64.521 57.3884V69.9231C64.521 70.3644 64.8231 70.7175 65.2547 70.8058L76.6916 72.7919C76.7347 72.7919 76.7779 72.7919 76.8211 72.7919C77.0368 72.7919 77.2094 72.7037 77.3821 72.5713C77.5547 72.3947 77.6842 72.174 77.6842 71.9092V59.4187C77.6842 58.9773 77.3821 58.6242 76.9505 58.536L65.5136 56.5498ZM75.9579 70.8499L66.2474 69.1728V58.4477L75.9579 60.1249V70.8499Z"/>
    </symbol>

</svg>